<svg height="512" viewBox="0 0 60 60" width="512" xmlns="http://www.w3.org/2000/svg"><g id="Page-1" fill="none" fill-rule="evenodd"><g id="048---Broth" fill-rule="nonzero" transform="translate(-1)"><path id="Shape" d="m8 30c.00160189.5508465-.15079846 1.091175-.44 1.56-.39982974.2885482-.75381683.6357927-1.05 1.03-1.17439076.6840815-2.66196213.4931953-3.62558433-.4652375-.9636222-.9584327-1.16253824-2.4449517-.48480826-3.6230192.67772999-1.1780676 2.062778-1.7533485 3.37570919-1.4021039 1.31293119.3512447 2.22571518 1.5412579 2.2246834 2.9003606z" fill="#607d8b"/><path id="Shape" d="m60 30c-.0008146 1.0734551-.5751199 2.0646698-1.5059949 2.5992522-.930875.5345823-2.0764407.531054-3.0040051-.0092522-.2961832-.3942073-.6501703-.7414518-1.05-1.03-.2892015-.468825-.4416019-1.0091535-.44-1.56 0-1.6568542 1.3431458-3 3-3s3 1.3431458 3 3z" fill="#607d8b"/><path id="Shape" d="m57 27c-.5279736.0027317-1.0457023.14597-1.5.415.9293431.5309031 1.502166 1.5198212 1.5003046 2.5901171-.0018614 1.0702958-.5781205 2.0572155-1.5093046 2.5848829.4572506.2692323.9783744.4108233 1.509.41 1.6568542 0 3-1.3431458 3-3s-1.3431458-3-3-3z" fill="#37474f"/><path id="Shape" d="m56 34c0 3.87-11.19 7-25 7s-25-3.13-25-7c.014633-.5124851.19340441-1.0067354.51-1.41.29618317-.3942073.65017026-.7414518 1.05-1.03 3.53-2.66 12.69-4.56 23.44-4.56s19.91 1.9 23.44 4.56c.3998297.2885482.7538168.6357927 1.05 1.03.3165956.4032646.495367.8975149.51 1.41z" fill="#ff9801"/><path id="Shape" d="m54.44 31.56c-3.53-2.66-12.69-4.56-23.44-4.56-.5 0-1 .008-1.5.017 10.094.167 18.576 2.008 21.94 4.543.8665635.531171 1.4415581 1.4305217 1.56 2.44 0 3.729-10.389 6.769-23.5 6.986.5.014 1 .014 1.5.014 13.81 0 25-3.13 25-7-.1184419-1.0094783-.6934365-1.908829-1.56-2.44z" fill="#f57c00"/><path id="Shape" d="m56 34v3c0 5.8347628-2.3178505 11.4305489-6.4436508 15.5563492s-9.7215864 6.4436508-15.5563492 6.4436508h-6c-12.1502645 0-22-9.8497355-22-22v-3c0 3.87 11.19 7 25 7s25-3.13 25-7z" fill="#7f8e94"/><path id="Shape" d="m52.992 37.334c-.1824532 12.0165164-9.9740989 21.6630149-21.992 21.666h3c5.8347628 0 11.4305489-2.3178505 15.5563492-6.4436508s6.4436508-9.7215864 6.4436508-15.5563492v-3c0 1.208-1.09 2.343-3.008 3.334z" fill="#545c60"/><path id="Shape" d="m33.037 36.767c-1.340193.3110109-2.733807.3110109-4.074 0-.4227548-.1531481-.7531976-.4898276-.8984153-.9153718-.1452177-.4255441-.0895262-.8939926.1514153-1.2736282l1.75-2.952c.201346-.3847936.5997117-.6259519 1.034-.6259519s.832654.2411583 1.034.6259519l1.75 2.952c.2409415.3796356.296633.8480841.1514153 1.2736282-.1452177.4255442-.4756605.7622237-.8984153.9153718z" fill="#ffdc00"/><path id="Shape" d="m43.96 35.92c-1.58.29-3.39.55-5.39.74h-.01c-.2752435-.1715292-.4676747-.4488647-.532006-.7667369s.005119-.6482074.192006-.9132631l1.75-2.46c.2422926-.3255209.624205-.5173475 1.03-.5173475s.7877074.1918266 1.03.5173475l1.75 2.46c.198804.2701039.2649551.6155593.18.94z" fill="#ffdc00"/><path id="Shape" d="m23.44 36.66h-.01c-2-.19-3.81-.45-5.39-.74-.0849551-.3244407-.018804-.6698961.18-.94l1.75-2.46c.2422926-.3255209.624205-.5173475 1.03-.5173475s.7877074.1918266 1.03.5173475l1.75 2.46c.186887.2650557.2563373.5953909.192006.9132631s-.2567625.5952077-.532006.7667369z" fill="#ffdc00"/><path id="Shape" d="m22.08 55c-.112365.0000061-.2239274-.0189257-.33-.056-5.4335673-1.9230553-9.7157517-6.1854148-11.664-11.61-.17687499-.5183608.0961482-1.0825557.6123973-1.2655023.5162492-.1829467 1.0836096.0834359 1.2726027.5975023 1.7439842 4.8545035 5.5763449 8.6688754 10.439 10.39.4604125.1609227.7375757.6305127.6559506 1.1113589s-.4982255.8326677-.9859506.8326411z" fill="#f5f5f5"/><circle id="Oval" cx="26" cy="55" fill="#f5f5f5" r="1"/><g fill="#000"><path id="Shape" d="m57.978 26.135c-.469171-14.5613164-12.4091271-26.12275895-26.978-26.12275895s-26.50882905 11.56144255-26.978 26.12275895c-1.95812511.48909-3.24316141 2.362762-2.99410939 4.365619s1.95383434 3.5047499 3.97210939 3.499381v3c.01377846 12.6968376 10.3031624 22.9862215 23 23h6c12.6968376-.0137785 22.9862215-10.3031624 23-23v-3c2.0182751.0053689 3.7230574-1.496524 3.9721094-3.499381s-1.0359843-3.876529-2.9941094-4.365619zm-26.978-24.135c13.4677054.01704053 24.5065734 10.6895373 24.978 24.149-1.6058619.4280391-2.7773149 1.8079541-2.939 3.462-4.905-2.366-13.645-3.611-22.039-3.611s-17.134 1.245-22.039 3.611c-.16168515-1.6540459-1.33313806-3.0339609-2.939-3.462.47142656-13.4594627 11.5102946-24.13195947 24.978-24.149zm0 38c-14.869 0-24-3.494-24-6s9.131-6 24-6 24 3.494 24 6-9.131 6-24 6zm-26-8c-1.1045695 0-2-.8954305-2-2s.8954305-2 2-2 2 .8954305 2 2c-.00068207.3407248-.09104295.675267-.262.97-.3014611.2403809-.5799864.5081937-.832.8-.27907459.1485001-.58988582.2274036-.906.23zm29 26h-6c-11.497374-.0155647-20.848519-9.2664616-20.988-20.763 4.199 3.112 14.322 4.763 23.988 4.763s19.789-1.651 23.988-4.763c-.139481 11.4965384-9.490626 20.7474353-20.988 20.763zm23-26c-.3161974-.0029044-.6270134-.0821522-.906-.231-.2520136-.2918063-.5305389-.5596191-.832-.8-.1707877-.2944395-.2611426-.6286145-.262-.969 0-1.1045695.8954305-2 2-2s2 .8954305 2 2-.8954305 2-2 2z"/><path id="Shape" d="m50.336 33.09c-1.7869677.7423155-3.6472633 1.2940356-5.55 1.646-.0528929-.1172738-.116496-.229416-.19-.335l-1.75-2.461c-.4301554-.589654-1.1161195-.9383341-1.846-.9383341s-1.4158446.3486801-1.846.9383341l-1.746 2.46c-.2879715.4011695-.4266369.8903898-.392 1.383-.6726667.05-1.3643333.092-2.075.126.130377-.6286925.0235163-1.2833924-.3-1.838l-.689-1.161c.654.024 1.313.053 1.987.092l.061-.002c.5522847.0157401 1.0127598-.4192153 1.0285-.9715.0157401-.5522847-.4192153-1.0127599-.9715-1.0285-1.145-.066-2.246-.106-3.351-.128-.3943749-.5503704-1.0299187-.8768275-1.707-.8768275s-1.3126251.3264571-1.707.8768275c-1.105.022-2.206.062-3.351.128-.3572656.0105393-.6817699.210877-.8512754.5255477-.1695055.3146708-.1582601.6958686.0295 1 .1877601.3041315.5235098.4849916.8807754.4744523h.059c.674-.039 1.333-.068 1.987-.092l-.689 1.161c-.3235163.5546076-.430377 1.2093075-.3 1.838-.7113333-.034-1.403-.076-2.075-.126.0375663-.490791-.0975554-.9792808-.382-1.381l-1.75-2.461c-.4301554-.589654-1.1161195-.9383341-1.846-.9383341s-1.4158446.3486801-1.846.9383341l-1.748 2.454c-.0772649.1078153-.144226.2226536-.2.343-1.9030544-.3519904-3.7636788-.9037086-5.551-1.646-.3266117-.157534-.7129119-.1259137-1.009558.0826367s-.4571497.5613482-.4194606.9220027c.0376892.3606546.2676646.6726465.6010186.8153606 2.368 1.076 6.681 2.2 12.584 2.749h.012c2.286.212 4.8.339 7.547.34h.042c2.745 0 5.261-.128 7.547-.34h.012c5.9-.548 10.216-1.673 12.584-2.749.333354-.1427141.5633294-.454706.6010186-.8153606.0376891-.3606545-.1228145-.7134523-.4194606-.9220027s-.6829463-.2401707-1.009558-.0826367zm-11.3 2.47 1.75-2.461c.0415453-.0804118.1244899-.1309189.215-.1309189s.1734547.0505071.215.1309189l1.441 2.026c-1.123.182-2.331.346-3.631.479.005-.013.002-.034.009-.044zm-9.847.232c-.0660575-.0315715-.1160376-.0891573-.138-.159-.075292-.1764951-.0653377-.3777943.027-.546l1.75-2.951c.051-.087.114-.136.173-.136s.122.049.173.136l1.75 2.951c.0923377.1682057.102292.3695049.027.546-.0219434.0695374-.0714706.1270179-.137.159-.5847186.135598-1.1827702.2053651-1.783.208h-.062c-.5995607-.0027839-1.1969332-.07255-1.781-.208zm-8.4-2.693c.0415453-.0804118.1244899-.1309189.215-.1309189s.1734547.0505071.215.1309189l1.754 2.466c0 .008 0 .029.008.039-1.3-.133-2.51-.3-3.633-.479z"/><path id="Shape" d="m29 22c0 .5522847.4477153 1 1 1s1-.4477153 1-1c-.0062746-.7048659.2754582-1.3817471.78-1.874 1.626199-1.7656064 1.626199-4.4833936 0-6.249-.4999669-.4960544-.7811766-1.1712011-.7811766-1.8755s.2812097-1.3794456.7811766-1.8755c.7918372-.8474064 1.228492-1.96624503 1.22-3.126 0-.55228475-.4477153-1-1-1s-1 .44771525-1 1c.0064426.70568292-.2756852 1.38336746-.781 1.876-1.6255106 1.7666432-1.6255106 4.4843568 0 6.251.499599.495844.7805886 1.1706105.7805886 1.8745s-.2809896 1.378656-.7805886 1.8745c-.7918764.8465043-1.2282733 1.9648832-1.219 3.124z"/><path id="Shape" d="m19 23c0 .5522847.4477153 1 1 1s1-.4477153 1-1c.0021832-.6428279.2782517-1.2542524.759-1.681.7940553-.789794 1.2405109-1.8635454 1.2405109-2.9835s-.4464556-2.193706-1.2405109-2.9835c-.4831113-.4263533-.7598439-1.0396603-.7598439-1.684s.2767326-1.2576467.7598439-1.684c.798625-.7869642 1.2460488-1.8628002 1.241-2.984 0-.55228475-.4477153-1-1-1s-1 .44771525-1 1c-.0023475.64386535-.2787318 1.2562746-.76 1.684-.7938686.7900967-1.2401778 1.8639642-1.2401778 2.984s.4463092 2.1939033 1.2401778 2.984c.4829774.4258013.7596785 1.0386259.7596785 1.6825s-.2767011 1.2566987-.7596785 1.6825c-.798105.7868233-1.2451562 1.8622699-1.24 2.983z"/><path id="Shape" d="m39 23c0 .5522847.4477153 1 1 1s1-.4477153 1-1c.0021832-.6428279.2782517-1.2542524.759-1.681.7940553-.789794 1.2405109-1.8635454 1.2405109-2.9835s-.4464556-2.193706-1.2405109-2.9835c-.4831113-.4263533-.7598439-1.0396603-.7598439-1.684s.2767326-1.2576467.7598439-1.684c.798625-.7869642 1.2460488-1.8628002 1.241-2.984 0-.55228475-.4477153-1-1-1s-1 .44771525-1 1c-.0023475.64386535-.2787318 1.2562746-.76 1.684-.7938686.7900967-1.2401778 1.8639642-1.2401778 2.984s.4463092 2.1939033 1.2401778 2.984c.4829774.4258013.7596785 1.0386259.7596785 1.6825s-.2767011 1.2566987-.7596785 1.6825c-.798105.7868233-1.2451562 1.8622699-1.24 2.983z"/></g></g></g></svg>