<svg height="512" viewBox="0 0 512 512" width="512" xmlns="http://www.w3.org/2000/svg"><g id="Chocolate-3" data-name="Chocolate"><path d="m137 264h240v231h-240z" fill="#aa6100"/><path d="m385 311-73-32-56 32-56-32-71 32v-80h256z" fill="#ab2300"/><path d="m153 15h208a16 16 0 0 1 16 16v200a0 0 0 0 1 0 0h-240a0 0 0 0 1 0 0v-200a16 16 0 0 1 16-16z" fill="#5f4d37"/><path d="m216 16h80v216h-80z" fill="#806749"/><g fill="#231f20"><path d="m384 224v-192a24.027 24.027 0 0 0 -24-24h-208a24.027 24.027 0 0 0 -24 24v192a8 8 0 0 0 -8 8v80a7.968 7.968 0 0 0 8 7.985v176.015a8 8 0 0 0 8 8h240a8 8 0 0 0 8-8v-176a8 8 0 0 0 8-8v-80a8 8 0 0 0 -8-8zm-248 75.619v-59.619h240v59.758l-61.788-27.085a8 8 0 0 0 -7.181.381l-52.031 29.732-52.031-29.732a8 8 0 0 0 -7.256-.347zm88-107.619h64v32h-64zm144-15.931a8.047 8.047 0 0 0 -1-.069h-63v-40h63a8.047 8.047 0 0 0 1-.069zm0-56a8.047 8.047 0 0 0 -1-.069h-63v-40h63a8.047 8.047 0 0 0 1-.069zm-80-.069h-64v-40h64zm-80 0h-64v-40h64zm-64 16h64v40h-64zm80 0h64v40h-64zm80 88v-32h63a8.047 8.047 0 0 0 1-.069v32.069zm56-200a8.009 8.009 0 0 1 8 8v32.069a8.047 8.047 0 0 0 -1-.069h-63v-40zm-72 0v40h-64v-40zm-136 0h56v40h-64v-32a8.009 8.009 0 0 1 8-8zm-8 168h64v32h-64zm0 296v-174.436l54.57-24.6 52.461 29.977a8 8 0 0 0 7.938 0l52.506-30 56.525 24.78v174.279z"/><path d="m215 256a8 8 0 0 0 -8-8h-56a8 8 0 0 0 0 16h56a8 8 0 0 0 8-8z"/><path d="m231 264h7a8 8 0 0 0 0-16h-7a8 8 0 0 0 0 16z"/></g></g></svg>