<svg id="icons" enable-background="new 0 0 64 64" height="512" viewBox="0 0 64 64" width="512" xmlns="http://www.w3.org/2000/svg"><path d="m5 56.5v-1c0-1.11.89-2 2-2 1.03 0 1.89.78 1.99 1.79v4.21h-7.99v-3c0-1.11.89-2 2-2 1.1 0 2 .89 2 2z" fill="#a0d468"/><path d="m59 56.5c0-1.11.89-2 2-2 1.1 0 2 .56 2 2v3h-8v-3-1c0-1.11.89-2 2-2 1.1 0 2 .89 2 2z" fill="#a0d468"/><path d="m52 46.5v3h-3v-.01-3.76c.53.479 1.23.77 2 .77z" fill="#da4453"/><path d="m52 39.49v7.01h-1c-.77 0-1.47-.29-2-.77v-.01c-.62-.54-1-1.34-1-2.22v-4.01z" fill="#ed5565"/><path d="m55 56.5v3h-19v-10h3 3 7 3v-3-7.01h3v16.01z" fill="#e6e9ed"/><path d="m49 49.49v.01h-7v-.01-3.76-.01c.62-.54 1-1.34 1-2.22v-4.01h5v4.01c0 .88.38 1.68 1 2.22v.011z" fill="#5d9cec"/><path d="m42 45.72v.011c-.53.479-1.23.77-2 .77h-1v-7.01h4v4.01c0 .879-.38 1.679-1 2.219z" fill="#ed5565"/><path d="m40 46.5c.77 0 1.47-.29 2-.77v3.76.01h-3v-3z" fill="#da4453"/><path d="m15 45.72v.011c-.53.479-1.24.77-2 .77h-1v-7.01h4v4.01c0 .879-.39 1.679-1 2.219z" fill="#ed5565"/><path d="m13 46.5c.76 0 1.47-.29 2-.77v3.76.01h-3v-3z" fill="#da4453"/><path d="m22 49.49v.01h-7v-.01-3.76-.01c.61-.54 1-1.34 1-2.22v-4.01h5v4.01c0 .88.38 1.68 1 2.22v.011z" fill="#5d9cec"/><path d="m25 46.5v3h-3v-.01-3.76c.53.479 1.23.77 2 .77z" fill="#da4453"/><path d="m25 39.49v7.01h-1c-.77 0-1.47-.29-2-.77v-.01c-.62-.54-1-1.34-1-2.22v-4.01z" fill="#ed5565"/><path d="m36 42.5v7 10h-8v-17z" fill="#965353"/><path d="m25 46.5v-7.01h-4-5-4v7.01 3h3 7 3zm14-7.01v7.01 3h-3v-7h-8v17h-19.01v-4.21-21.79h46.01v5.99h-3-4-5z" fill="#e6e9ed"/><path d="m57 28.49v5.01h-2-46.01-2v-5.01h25.01z" fill="#f5f7fa"/><path d="m41 16.5c0 4.97-4.03 9-9 9s-9-4.03-9-9v-3c0 4.97 4.03 9 9 9s9-4.03 9-9z" fill="#ffd2a6"/><path d="m32 9.5c2.21 0 4 1.79 4 4 0 .53-.1 1.03-.3 1.49-.59-1.46-2.021-2.49-3.7-2.49-1.65 0-3.08 1-3.68 2.44l-.04.01c-.18-.45-.28-.94-.28-1.45 0-2.21 1.79-4 4-4z" fill="#ffd2a6"/><path d="m35.7 14.99c.2-.46.3-.96.3-1.49 0-2.21-1.79-4-4-4s-4 1.79-4 4c0 .51.1 1 .28 1.45.58 1.49 2.02 2.55 3.72 2.55 1.68 0 3.12-1.04 3.7-2.51zm5.3-1.49c0 4.97-4.03 9-9 9s-9-4.03-9-9 4.03-9 9-9 9 4.03 9 9z" fill="#ec87c0"/><path d="m63 60.501h-62c-.553 0-1-.447-1-1s.447-1 1-1h62c.553 0 1 .447 1 1s-.447 1-1 1z"/><path d="m55.004 60.501h-46.008c-.553 0-1-.447-1-1v-26.003c0-.553.447-1 1-1s1 .447 1 1v25.003h44.008v-25.003c0-.553.447-1 1-1s1 .447 1 1v26.003c0 .553-.447 1-1 1z"/><path d="m36 60.501h-8c-.553 0-1-.447-1-1v-17c0-.553.447-1 1-1h8c.553 0 1 .447 1 1v17c0 .553-.447 1-1 1zm-7-2h6v-15h-6z"/><path d="m1 60.501c-.553 0-1-.447-1-1v-3c0-1.654 1.346-3 2.999-3 .535 0 1.037.141 1.473.387.533-.833 1.467-1.387 2.528-1.387 1.653 0 2.999 1.345 2.999 2.998v1.002c0 .553-.447 1-1 1s-1-.447-1-1v-1.002c0-.551-.448-.998-.999-.998s-.999.447-.999.998v1.002c0 .553-.447 1-1 1s-1-.447-1-1c0-.552-.449-1-1.002-1-.551 0-.999.448-.999 1v3c0 .553-.447 1-1 1z"/><path d="m63 60.501c-.553 0-1-.447-1-1v-3c0-.601-.17-1-.999-1-.553 0-1.002.448-1.002 1 0 .553-.447 1-1 1s-1-.447-1-1v-1.002c0-.551-.448-.998-.999-.998s-.999.447-.999.998v1.002c0 .553-.447 1-1 1s-1-.447-1-1v-1.002c0-1.653 1.346-2.998 2.999-2.998 1.061 0 1.995.554 2.528 1.387.436-.246.938-.387 1.473-.387 1.822 0 2.999 1.178 2.999 3v3c0 .553-.447 1-1 1z"/><path d="m6.996 34.5c-.552 0-1-.447-1-1l-.002-5.002c0-.552.447-1 1-1 .552 0 1 .447 1 1l.002 5.002c0 .552-.447 1-1 1z"/><path d="m57.004 34.5c-.553 0-1-.448-1-1l.002-5.002c0-.553.448-1 1-1 .553 0 1 .448 1 1l-.002 5.002c0 .553-.448 1-1 1z"/><path d="m57.006 29.498h-50.012c-.553 0-1-.447-1-1s.447-1 1-1h50.012c.553 0 1 .447 1 1s-.447 1-1 1z"/><path d="m57.004 34.5h-50.008c-.553 0-1-.447-1-1s.447-1 1-1h50.008c.553 0 1 .447 1 1s-.447 1-1 1z"/><path d="m25.001 50.504h-13.001c-.553 0-1-.447-1-1v-10.006c0-.553.447-1 1-1h13.001c.553 0 1 .447 1 1v10.006c0 .553-.447 1-1 1zm-12.001-2h11.001v-8.006h-11.001z"/><path d="m52.001 50.504h-13.001c-.553 0-1-.447-1-1v-10.006c0-.553.447-1 1-1h13.001c.553 0 1 .447 1 1v10.006c0 .553-.447 1-1 1zm-12.001-2h11.001v-8.006h-11.001z"/><path d="m33 47.501h-2c-.553 0-1-.447-1-1s.447-1 1-1h2c.553 0 1 .447 1 1s-.447 1-1 1z"/><path d="m36 40.505h-7.833c-.553 0-1-.447-1-1s.447-1 1-1h7.833c.553 0 1 .447 1 1s-.447 1-1 1z"/><path d="m13 47.5c-.553 0-1-.447-1-1s.447-1 1-1c1.103 0 2-.897 2-2 0-.553.447-1 1-1s1 .447 1 1c0 2.206-1.794 4-4 4z"/><path d="m16 44.5c-.553 0-1-.447-1-1v-4.002c0-.553.447-1 1-1s1 .447 1 1v4.002c0 .553-.447 1-1 1z"/><path d="m15 50.498c-.553 0-1-.447-1-1v-3.771c0-.553.447-1 1-1s1 .447 1 1v3.771c0 .553-.447 1-1 1z"/><path d="m13 47.5h-1c-.553 0-1-.447-1-1s.447-1 1-1h1c.553 0 1 .447 1 1s-.447 1-1 1z"/><path d="m24 47.5c-2.206 0-4-1.794-4-4 0-.553.447-1 1-1s1 .447 1 1c0 1.103.897 2 2 2 .553 0 1 .447 1 1s-.447 1-1 1z"/><path d="m21 44.5c-.553 0-1-.447-1-1v-4.002c0-.553.447-1 1-1s1 .447 1 1v4.002c0 .553-.447 1-1 1z"/><path d="m22 50.498c-.553 0-1-.447-1-1v-3.771c0-.553.447-1 1-1s1 .447 1 1v3.771c0 .553-.447 1-1 1z"/><path d="m25 47.5h-1c-.553 0-1-.447-1-1s.447-1 1-1h1c.553 0 1 .447 1 1s-.447 1-1 1z"/><path d="m40.001 47.5c-.553 0-1-.447-1-1s.447-1 1-1c1.103 0 2-.897 2-2 0-.553.447-1 1-1s1 .447 1 1c0 2.206-1.794 4-4 4z"/><path d="m43.001 44.5c-.553 0-1-.447-1-1v-4.002c0-.553.447-1 1-1s1 .447 1 1v4.002c0 .553-.447 1-1 1z"/><path d="m42.001 50.498c-.553 0-1-.447-1-1v-3.771c0-.553.447-1 1-1s1 .447 1 1v3.771c0 .553-.447 1-1 1z"/><path d="m40.001 47.5h-1c-.553 0-1-.447-1-1s.447-1 1-1h1c.553 0 1 .447 1 1s-.447 1-1 1z"/><path d="m51.001 47.5c-2.206 0-4-1.794-4-4 0-.553.447-1 1-1s1 .447 1 1c0 1.103.897 2 2 2 .553 0 1 .447 1 1s-.447 1-1 1z"/><path d="m48.001 44.5c-.553 0-1-.447-1-1v-4.002c0-.553.447-1 1-1s1 .447 1 1v4.002c0 .553-.447 1-1 1z"/><path d="m49.001 50.498c-.553 0-1-.447-1-1v-3.771c0-.553.447-1 1-1s1 .447 1 1v3.771c0 .553-.447 1-1 1z"/><path d="m52.001 47.5h-1c-.553 0-1-.447-1-1s.447-1 1-1h1c.553 0 1 .447 1 1s-.447 1-1 1z"/><path d="m32.005 26.504c-5.514 0-10-4.487-10-10.002 0-.553.447-1 1-1s1 .447 1 1c0 4.412 3.589 8.002 8 8.002s8-3.59 8-8.002c0-.553.447-1 1-1s1 .447 1 1c0 5.515-4.486 10.002-10 10.002z"/><path d="m32.005 23.501c-5.514 0-10-4.487-10-10.002 0-5.514 4.486-10 10-10s10 4.486 10 10c0 5.515-4.486 10.002-10 10.002zm0-18.002c-4.411 0-8 3.589-8 8 0 4.412 3.589 8.002 8 8.002s8-3.59 8-8.002c0-4.411-3.589-8-8-8z"/><path d="m32.005 18.501c-2.757 0-5-2.244-5-5.002 0-2.757 2.243-5 5-5s5 2.243 5 5c0 2.758-2.243 5.002-5 5.002zm0-8.002c-1.654 0-3 1.346-3 3 0 1.655 1.346 3.002 3 3.002s3-1.347 3-3.002c0-1.654-1.346-3-3-3z"/><path d="m35.714 16c-.395 0-.769-.235-.927-.624-.463-1.14-1.555-1.877-2.782-1.877-1.207 0-2.293.72-2.765 1.835-.217.509-.803.744-1.312.53-.508-.216-.746-.803-.53-1.312.786-1.854 2.595-3.054 4.606-3.054 2.045 0 3.865 1.227 4.636 3.125.208.512-.039 1.095-.551 1.303-.122.051-.249.074-.375.074z"/><path d="m23.005 17.502c-.553 0-1-.447-1-1v-3.003c0-.553.447-1 1-1s1 .447 1 1v3.003c0 .553-.447 1-1 1z"/><path d="m41.005 17.502c-.553 0-1-.447-1-1v-3.003c0-.553.447-1 1-1s1 .447 1 1v3.003c0 .553-.447 1-1 1z"/><path d="m32.005 29.498c-.553 0-1-.447-1-1v-2.994c0-.553.447-1 1-1s1 .447 1 1v2.994c0 .553-.447 1-1 1z"/></svg>