<svg id="Layer_1" enable-background="new 0 0 256 256" height="512" viewBox="0 0 256 256" width="512" xmlns="http://www.w3.org/2000/svg"><g><path d="m248.3 197.613v15.586c0 5.523-4.477 10-10 10h-220.6c-5.523 0-10-4.477-10-10v-15.586c0-5.523 4.477-10 10-10h181.135c3.344 0 6.055 2.711 6.055 6.055v.905c0 3.793 3.099 6.75 6.75 6.75 3.73 0 6.75-3.03 6.75-6.75v-.905c0-3.344 2.711-6.055 6.055-6.055h13.855c5.523 0 10 4.478 10 10z" fill="#b35034"/><path d="m237.3 216.699h-201.456c-1.381 0-2.5-1.119-2.5-2.5s1.119-2.5 2.5-2.5h199.956v-14.086c0-1.381 1.119-2.5 2.5-2.5s2.5 1.119 2.5 2.5v15.586c0 1.93-1.571 3.5-3.5 3.5zm-211.502 0h-9.098c-1.381 0-2.5-1.119-2.5-2.5s1.119-2.5 2.5-2.5h9.098c1.381 0 2.5 1.119 2.5 2.5s-1.119 2.5-2.5 2.5z" fill="#ffcbc2"/><path d="m31.403 223.201h16v21.417h-16z" fill="#4c4945"/><path d="m208.597 223.201h16v21.417h-16z" fill="#4c4945"/><path d="m113 141.828v-11.314c0-1.657-1.343-3-3-3h-74.78c2.65 8.29-4.64 16.56-13.2 14.88v45.22h90.98v-17.592c0-2.081-1.27-4-3.238-4.676-3.908-1.342-6.712-5.046-6.712-9.412 0-4.368 2.807-8.087 6.718-9.432 1.966-.677 3.232-2.596 3.232-4.674z" fill="#f0c020"/><path d="m104 180.823h-4c-1.381 0-2.5-1.119-2.5-2.5s1.119-2.5 2.5-2.5h4c1.381 0 2.5 1.119 2.5 2.5s-1.119 2.5-2.5 2.5zm-14 0h-60.125c-1.381 0-2.5-1.119-2.5-2.5v-27.889c0-1.381 1.119-2.5 2.5-2.5s2.5 1.119 2.5 2.5v25.389h57.625c1.381 0 2.5 1.119 2.5 2.5s-1.119 2.5-2.5 2.5z" fill="#f9e5af"/><path d="m50.037 143.337c-3.816 0-6.91 3.094-6.91 6.91s3.094 6.91 6.91 6.91 6.91-3.094 6.91-6.91-3.094-6.91-6.91-6.91z" fill="#cf941c"/><path d="m81.125 154.588c-3.432 0-6.213 2.782-6.213 6.213 0 3.432 2.782 6.214 6.213 6.214s6.213-2.782 6.213-6.214c0-3.431-2.781-6.213-6.213-6.213z" fill="#cf941c"/><path d="m220.5 107.852h-81.5c-5.523 0-10 4.477-10 10v63.707c0 3.344 2.711 6.055 6.055 6.055h63.78c3.344 0 6.055 2.711 6.055 6.055v.905c0 3.793 3.099 6.75 6.75 6.75 3.73 0 6.75-3.03 6.75-6.75v-.905c0-3.344 2.711-6.055 6.055-6.055s6.055-2.711 6.055-6.055v-63.707c0-5.523-4.478-10-10-10z" fill="#f9e5af"/><path d="m221.5 181.402c-1.381 0-2.5-1.119-2.5-2.5v-3.122c0-1.381 1.119-2.5 2.5-2.5s2.5 1.119 2.5 2.5v3.122c0 1.381-1.119 2.5-2.5 2.5zm0-13.121c-1.381 0-2.5-1.119-2.5-2.5v-46.429h-80c-1.381 0-2.5-1.119-2.5-2.5s1.119-2.5 2.5-2.5h81.5c1.93 0 3.5 1.57 3.5 3.5v47.929c0 1.381-1.119 2.5-2.5 2.5z" fill="#fff"/><path d="m194.505 22.373-16.45 40.03-14.58-6 16.45-40.02z" fill="#72c1e8"/><path d="m187.519 66.292-17.08 41.56h-28.11l21.15-51.45 14.58 6z" fill="#afafaf"/><path d="m154.81 101.165c-1.277-.525-1.887-1.986-1.362-3.263l12.62-30.701c.525-1.276 1.987-1.884 3.263-1.362 1.277.525 1.887 1.986 1.362 3.263l-12.62 30.701c-.526 1.277-1.986 1.886-3.263 1.362z" fill="#efefef"/><g fill="#f0c020"><path d="m133.345 76.064c-4.009-1.325-8.149-2.482-10.473-12.495-2.141 9.222-5.571 10.875-10.473 12.495 7.996 2.642 9.202 7.017 10.473 12.495 2.191-9.443 5.815-10.956 10.473-12.495z"/><path d="m96.884 48.912c-4.009-1.325-8.149-2.482-10.473-12.495-2.141 9.222-5.571 10.875-10.473 12.495 7.996 2.642 9.202 7.017 10.473 12.495 2.191-9.444 5.815-10.956 10.473-12.495z"/><path d="m82.889 92.865c-4.009-1.325-8.149-2.482-10.473-12.495-2.141 9.222-5.571 10.875-10.473 12.495 7.996 2.642 9.202 7.017 10.473 12.495 2.191-9.443 5.815-10.956 10.473-12.495z"/></g><path d="m17.7 225.7h11.204v18.918c0 1.381 1.119 2.5 2.5 2.5h16c1.381 0 2.5-1.119 2.5-2.5v-18.918h29.696c1.38 0 2.5-1.12 2.5-2.5s-1.12-2.5-2.5-2.5h-61.9c-4.13-.01-7.49-3.37-7.5-7.5v-15.59c.01-4.12 3.37-7.49 7.5-7.5h181.13c1.96.01 3.56 1.6 3.56 3.56v.9c.01 5.1 4.16 9.24 9.25 9.25 5.101 0 9.25-4.15 9.25-9.25v-.9c0-1.96 1.601-3.55 3.55-3.56h13.86c4.13.01 7.49 3.38 7.5 7.5v15.59c-.01 4.13-3.37 7.49-7.5 7.5h-138.7c-1.38 0-2.5 1.12-2.5 2.5s1.12 2.5 2.5 2.5h106.497v18.918c0 1.381 1.119 2.5 2.5 2.5h16c1.381 0 2.5-1.119 2.5-2.5v-18.918h11.203c6.89 0 12.5-5.61 12.5-12.5v-15.59c0-6.89-5.61-12.49-12.5-12.5h-6.083c.498-1.083.783-2.283.783-3.55v-63.71c0-6.89-5.61-12.5-12.5-12.5h-4.502c10.079-8.355 8.763-21.862.273-28.58-6.44-5.085-15.825-3.986-20.923 2.455-4.231 5.369-3.315 13.191 2.048 17.442 4.53 3.569 11.087 2.797 14.646-1.721 3.039-3.834 2.391-9.394-1.45-12.425-1.086-.857-2.658-.67-3.512.414-.855 1.084-.67 2.656.414 3.511 1.661 1.312 1.957 3.719.625 5.401-1.839 2.336-5.25 2.767-7.623.897-3.202-2.538-3.75-7.214-1.224-10.419 3.386-4.277 9.62-5.01 13.898-1.631 5.618 4.445 6.578 12.632 2.139 18.251-3.205 4.061-8.015 6.393-13.204 6.406h-27.938l15.662-38.11c.526-1.305-.097-2.75-1.36-3.26l-7.151-2.942 15.499-37.715c.524-1.276-.085-2.738-1.362-3.263l-14.58-5.99c-1.278-.524-2.737.085-3.263 1.362-17.66 42.964-16.278 39.617-25.442 61.907-.53 1.28.08 2.74 1.36 3.27 1.25.51 2.75-.12 3.26-1.37 0 0 0 0 .01-.01l8.04-19.56s19.21 7.894 19.42 7.98l-15.5 37.7h-22.7l3.13-7.61c.521-1.27-.09-2.74-1.37-3.26-1.25-.52-2.75.12-3.26 1.36l-3.904 9.51h-1.656c-6.891 0-12.5 5.61-12.5 12.5v7.79c0 1.38 1.12 2.5 2.5 2.5s2.5-1.12 2.5-2.5v-7.79c.01-4.13 3.37-7.49 7.5-7.5h81.5c4.13.01 7.49 3.37 7.5 7.5v63.71c0 1.95-1.601 3.55-3.561 3.55-4.71 0-8.55 3.84-8.55 8.56v.9c-.01 2.34-1.91 4.25-4.25 4.25s-4.25-1.91-4.25-4.25v-.9c0-4.72-3.84-8.56-8.56-8.56h-63.78c-1.95 0-3.55-1.6-3.55-3.55v-35.92c0-1.38-1.12-2.5-2.5-2.5-1.37 0-2.49 1.11-2.5 2.48v.02 35.92c0 1.267.285 2.467.783 3.55h-11.782v-15.092c0-3.2-1.98-6.029-4.928-7.041-3.002-1.03-5.019-3.861-5.019-7.044 0-3.193 2.02-6.034 5.026-7.067 2.943-1.012 4.92-3.84 4.92-7.038v-11.313c0-3.033-2.467-5.5-5.5-5.5h-74.781c-1.693 0-2.897 1.65-2.381 3.261 2.078 6.503-3.659 12.98-10.334 11.666-1.544-.303-2.982.88-2.982 2.453v42.716h-1.821c-6.89.01-12.5 5.61-12.5 12.5v15.59c0 6.889 5.61 12.499 12.5 12.499zm27.203 16.418h-11v-16.417h11zm177.194 0h-11v-16.417h11zm-40.81-222.472 9.955 4.09-14.547 35.4-9.956-4.096zm-156.767 125.464c7.971-.153 14.3-7.164 13.714-15.097h71.766c.276 0 .5.224.5.5v11.313c0 1.047-.635 1.997-1.545 2.31-5.025 1.728-8.401 6.468-8.401 11.796 0 5.319 3.374 10.05 8.396 11.774.913.313 1.551 1.264 1.551 2.312v15.092h-85.981z"/><circle cx="89.6" cy="223.2" r="2.5"/><path d="m50.037 140.837c-5.189 0-9.411 4.221-9.411 9.41s4.222 9.411 9.411 9.411 9.41-4.222 9.41-9.411-4.221-9.41-9.41-9.41zm0 13.821c-2.432 0-4.411-1.979-4.411-4.411s1.979-4.41 4.411-4.41 4.41 1.979 4.41 4.41c0 2.433-1.978 4.411-4.41 4.411z"/><path d="m81.125 152.088c-4.805 0-8.713 3.909-8.713 8.713s3.909 8.713 8.713 8.713 8.713-3.909 8.713-8.713-3.908-8.713-8.713-8.713zm0 12.427c-2.047 0-3.713-1.666-3.713-3.713s1.666-3.713 3.713-3.713 3.713 1.666 3.713 3.713-1.666 3.713-3.713 3.713z"/><path d="m69.625 142.021c-1.381 0-2.5 1.119-2.5 2.5v1.928c0 1.381 1.119 2.5 2.5 2.5s2.5-1.119 2.5-2.5v-1.928c0-1.381-1.119-2.5-2.5-2.5z"/><path d="m93.75 140.323v-1.928c0-1.381-1.119-2.5-2.5-2.5s-2.5 1.119-2.5 2.5v1.928c0 1.381 1.119 2.5 2.5 2.5s2.5-1.119 2.5-2.5z"/><path d="m95 165.479c-1.381 0-2.5 1.119-2.5 2.5v1.928c0 1.381 1.119 2.5 2.5 2.5s2.5-1.119 2.5-2.5v-1.928c0-1.381-1.119-2.5-2.5-2.5z"/><path d="m42.001 164.515c-1.381 0-2.5 1.119-2.5 2.5v1.928c0 1.381 1.119 2.5 2.5 2.5s2.5-1.119 2.5-2.5v-1.928c0-1.381-1.119-2.5-2.5-2.5z"/><path d="m160.519 139.941c-1.381 0-2.5 1.119-2.5 2.5v8.707c0 5.101 4.149 9.25 9.25 9.25 1.544 0 2.998-.385 4.279-1.057.295 4.837 4.312 8.684 9.221 8.684 5.101 0 9.25-4.149 9.25-9.25v-9.163c0-1.381-1.119-2.5-2.5-2.5s-2.5 1.119-2.5 2.5v9.163c0 2.343-1.906 4.25-4.25 4.25s-4.25-1.907-4.25-4.25c0-9.015 0-14.772 0-23.804 0-1.381-1.119-2.5-2.5-2.5s-2.5 1.119-2.5 2.5v16.177c0 2.343-1.906 4.25-4.25 4.25s-4.25-1.907-4.25-4.25v-8.707c0-1.381-1.12-2.5-2.5-2.5z"/><circle cx="129" cy="135.64" r="2.5"/><path d="m148.359 86.59c-.528 1.31.11 2.741 1.37 3.27 1.265.505 2.724-.079 3.261-1.37.516-1.281-.088-2.739-1.36-3.26-1.26-.51-2.75.12-3.271 1.36z"/><path d="m125.307 63.004c-.595-2.566-4.273-2.573-4.87 0-1.954 8.417-4.835 9.369-8.822 10.686-2.284.755-2.279 3.995 0 4.748 6.87 2.271 7.646 5.618 8.821 10.686.596 2.567 4.273 2.573 4.871 0 1.953-8.416 4.834-9.368 8.822-10.686 2.284-.755 2.279-3.995 0-4.748-3.806-1.261-6.817-2.05-8.822-10.686zm-2.379 17.975c-.99-1.76-2.407-3.424-4.567-4.854 1.717-1.125 3.238-2.688 4.521-5.101 1.304 2.452 2.813 4.003 4.37 5.066-1.634 1.098-3.089 2.608-4.324 4.889z"/><path d="m88.847 61.971c1.953-8.416 4.834-9.368 8.822-10.686 2.284-.755 2.279-3.995 0-4.748-3.806-1.262-6.817-2.05-8.822-10.687-.595-2.566-4.273-2.573-4.87 0-1.954 8.417-4.835 9.369-8.822 10.686-2.284.755-2.279 3.995 0 4.748 6.87 2.271 7.646 5.618 8.821 10.686.596 2.568 4.273 2.574 4.871.001zm-6.946-12.998c1.717-1.125 3.238-2.688 4.521-5.101 1.304 2.452 2.813 4.003 4.37 5.066-1.634 1.099-3.088 2.608-4.323 4.89-.991-1.761-2.408-3.425-4.568-4.855z"/><path d="m74.851 79.805c-.595-2.566-4.273-2.573-4.87 0-1.954 8.417-4.835 9.369-8.822 10.686-2.284.755-2.279 3.995 0 4.748 6.87 2.271 7.646 5.618 8.821 10.686.596 2.567 4.273 2.573 4.871 0 1.953-8.416 4.834-9.368 8.822-10.686 2.284-.755 2.279-3.995 0-4.748-3.805-1.261-6.816-2.049-8.822-10.686zm-2.378 17.976c-.99-1.76-2.407-3.424-4.567-4.854 1.717-1.125 3.238-2.688 4.521-5.101 1.304 2.452 2.813 4.003 4.37 5.066-1.635 1.098-3.089 2.607-4.324 4.889z"/></g></svg>