<svg id="Expand_Filled" height="512" viewBox="0 0 64 64" width="512" xmlns="http://www.w3.org/2000/svg" data-name="Expand Filled"><g id="_13" data-name="13"><g><g><path d="m47.573 43.819-1.146-1.638a4.445 4.445 0 0 1 2.505-.852 2.757 2.757 0 0 0 2.5-1.75 4.751 4.751 0 0 1 4.168-2.917 2.536 2.536 0 0 0 1.516-.5l1.146 1.638a4.467 4.467 0 0 1 -2.507.852 2.766 2.766 0 0 0 -2.5 1.753 4.74 4.74 0 0 1 -4.164 2.915 2.54 2.54 0 0 0 -1.518.499z"/><path d="m49.573 34.819-1.146-1.638a4.445 4.445 0 0 1 2.505-.852 2.757 2.757 0 0 0 2.5-1.75 4.751 4.751 0 0 1 4.168-2.917 2.536 2.536 0 0 0 1.516-.5l1.146 1.638a4.467 4.467 0 0 1 -2.507.852 2.766 2.766 0 0 0 -2.5 1.753 4.74 4.74 0 0 1 -4.164 2.915 2.54 2.54 0 0 0 -1.518.499z"/></g><g><path d="m15.427 29.311a4.451 4.451 0 0 1 -1.658-2.063 2.53 2.53 0 0 0 -.984-1.248 2.538 2.538 0 0 0 -1.516-.5 4.465 4.465 0 0 1 -2.507-.853 4.457 4.457 0 0 1 -1.662-2.065 2.539 2.539 0 0 0 -.987-1.254l1.146-1.639a4.468 4.468 0 0 1 1.661 2.064 2.531 2.531 0 0 0 .986 1.254 2.54 2.54 0 0 0 1.517.5 4.465 4.465 0 0 1 2.507.853 4.447 4.447 0 0 1 1.657 2.063 2.536 2.536 0 0 0 .984 1.251z"/><path d="m13.427 20.311a4.451 4.451 0 0 1 -1.658-2.063 2.53 2.53 0 0 0 -.984-1.248 2.538 2.538 0 0 0 -1.516-.5 4.465 4.465 0 0 1 -2.507-.853 4.457 4.457 0 0 1 -1.662-2.065 2.539 2.539 0 0 0 -.987-1.254l1.146-1.639a4.468 4.468 0 0 1 1.661 2.064 2.531 2.531 0 0 0 .986 1.254 2.54 2.54 0 0 0 1.517.5 4.465 4.465 0 0 1 2.507.853 4.447 4.447 0 0 1 1.657 2.063 2.536 2.536 0 0 0 .984 1.251z"/></g><g><g><g><path d="m16.656 40a7 7 0 0 0 7 7h5.834a3.006 3.006 0 0 1 2.85 2.051 3 3 0 0 1 -2.84 3.949h-1.721a4 4 0 0 0 -3.879 3.03l-.242.97h8a9 9 0 0 0 9-9 8 8 0 0 0 -8-8z" fill="#e65039"/><path d="m21 42h2v2h-2z"/></g><g><path d="m16.656 6a7 7 0 0 0 7 7h5.834a3.006 3.006 0 0 1 2.85 2.051 3 3 0 0 1 -2.84 3.949h-1.721a4 4 0 0 0 -3.879 3.03l-.242.97h8a9 9 0 0 0 9-9 8 8 0 0 0 -8-8z" fill="#e65039"/><path d="m21 8h2v2h-2z"/></g><g><path d="m44 23h4.344a7 7 0 0 1 -7 7h-5.834a3.006 3.006 0 0 0 -2.85 2.051 3 3 0 0 0 2.84 3.949h1.718a4 4 0 0 1 3.882 3.03l.242.97h-8a9 9 0 0 1 -9-9 8 8 0 0 1 8-8z" fill="#fcb641"/><path d="m42 25h2v2h-2z"/></g></g><path d="m50 19v1a2 2 0 0 1 -2 2h-.537a3.98 3.98 0 0 0 .537-2v-1h-2v1a2 2 0 0 1 -2 2v2h3.261a6.01 6.01 0 0 1 -5.917 5h-1.344v-5h2v-2h-4.347a9.982 9.982 0 0 0 4-8c0-.069 0-.137 0-.206v-.046c0-.066 0-.131-.008-.2v-.039c0-.064-.008-.128-.012-.192v-.017l-.018-.2-.005-.041c-.007-.067-.014-.135-.023-.2v-.014c-.008-.068-.018-.136-.028-.2v-.014c-.012-.073-.024-.146-.037-.218a9 9 0 0 0 -6.822-7.18h-.02c-.138-.032-.277-.061-.417-.086l-.036-.006-.168-.028-.059-.013c-.067-.01-.133-.02-.2-.028h-.012c-.063-.008-.126-.015-.19-.021l-.059-.006c-.054-.006-.109-.011-.163-.015h-.044c-.067 0-.134-.01-.2-.013h-.053-.081v-5.017h-1.998v5h-10a2 2 0 0 1 -2-2v-1h-2v1a3.98 3.98 0 0 0 .537 2h-.537a2 2 0 0 1 -2-2v-1h-2v1a4.007 4.007 0 0 0 2.694 3.781 8.011 8.011 0 0 0 7.962 7.219h5.834a2 2 0 0 1 .538.073h.012l.041.013.037.011.018.007a1.98 1.98 0 0 1 .547.288 1.992 1.992 0 0 1 .618.758v.008l.027.06.02.051.008.019.027.075c.012.037.023.075.033.112l.006.024c.007.027.014.054.02.081s.007.037.011.055l.008.049c0 .022.007.044.01.066v.042c0 .024 0 .047.006.071v.034.079.024a1.982 1.982 0 0 1 -.211.894v.006c-.015.029-.03.059-.047.087v.01a1.984 1.984 0 0 1 -.152.226l-.024.032-.047.056-.026.029c-.017.02-.036.039-.054.058l-.02.021-.059.057-.021.018-.06.053-.024.019-.061.048-.028.02-.059.041-.04.025-.051.032a1.918 1.918 0 0 1 -.2.1l-.016.007c-.03.013-.059.025-.089.036l-.022.008-.085.028-.027.008-.081.022-.032.008-.079.016-.033.007-.081.011h-.034l-.085.007h-.03c-.038 0-.077 0-.116 0h-1.704a4.994 4.994 0 0 0 -4.851 3.787l-.242.97a1 1 0 0 0 .97 1.253h3.031a8.967 8.967 0 0 0 -3.238 5.627v.013c-.011.068-.02.137-.029.206v.013c-.008.067-.016.135-.023.2v.04c-.007.068-.013.135-.018.2v.017q-.008.1-.012.192v.039c0 .065 0 .13-.007.2v.046.206a9.977 9.977 0 0 0 4 8h-6.36a2 2 0 0 1 -2-2v-.999h-2v1a3.98 3.98 0 0 0 .537 2h-.537a2 2 0 0 1 -2-2v-1h-2v1a4.007 4.007 0 0 0 2.694 3.781 8.011 8.011 0 0 0 7.962 7.219h5.834a2 2 0 0 1 .538.073h.012l.041.013.037.011.018.007a1.98 1.98 0 0 1 .547.288 1.992 1.992 0 0 1 .618.758v.008l.027.06.02.051.008.019.027.075c.012.037.023.075.033.112l.006.024c.007.027.014.054.02.081s.007.037.011.055l.008.049c0 .022.007.044.01.066v.042c0 .024 0 .047.006.071v.034.079.024a1.982 1.982 0 0 1 -.211.894v.006c-.015.029-.03.059-.047.087v.01a1.984 1.984 0 0 1 -.152.226l-.024.032-.047.056-.026.029c-.017.02-.036.039-.054.058l-.02.021-.059.057-.021.018-.06.053-.024.019-.061.048-.028.02-.059.041-.04.025-.051.032a1.918 1.918 0 0 1 -.2.1l-.016.007c-.03.013-.059.025-.089.036l-.022.008-.085.028-.027.008-.081.022-.032.008-.079.016-.033.007-.081.011-.034.005-.085.007h-.03c-.038 0-.077 0-.116 0h-1.704a4.994 4.994 0 0 0 -4.851 3.787l-.242.97a1 1 0 0 0 .97 1.248h7.344v6h2v-6.091a9.883 9.883 0 0 0 2.853-.834l.037-.017.133-.064c.057-.027.114-.055.17-.084l.042-.022.171-.09.024-.013a9.988 9.988 0 0 0 5.226-8.785c0-.069 0-.137 0-.206v-.046c0-.066 0-.131-.008-.2v-.039c0-.064-.008-.128-.012-.192v-.017l-.018-.2-.005-.041c-.007-.067-.014-.135-.023-.2v-.014c-.008-.068-.018-.136-.028-.2v-.014c-.012-.073-.024-.146-.037-.218a8.972 8.972 0 0 0 -3.212-5.413h3.031a1 1 0 0 0 .969-1.242l-.242-.97a4.992 4.992 0 0 0 -4.85-3.788h-1.721c-.039 0-.078 0-.116 0h-.031l-.083-.007-.037-.005-.078-.011-.035-.007-.076-.016-.036-.008-.076-.021-.032-.015-.08-.027-.027-.01c-.028-.01-.055-.021-.081-.032l-.024-.01-.09-.043-.036-.019-.069-.038-.056-.035-.035-.022c-.021-.014-.042-.028-.062-.043l-.025-.018c-.022-.016-.043-.032-.063-.049l-.022-.017c-.021-.018-.041-.035-.061-.054l-.021-.018-.059-.057-.02-.021c-.018-.019-.037-.038-.054-.058l-.026-.029-.047-.056-.024-.032a1.984 1.984 0 0 1 -.148-.222l-.005-.01c-.017-.028-.032-.058-.047-.087v-.006a1.992 1.992 0 0 1 -.209-.792v-.015c0-.024 0-.048 0-.072v-.044-.053c0-.022 0-.045 0-.068v-.036c0-.019 0-.037.007-.056s.006-.046.009-.07l.011-.058.008-.043c.007-.033.015-.066.024-.1v-.006c.01-.038.022-.077.034-.115a2.021 2.021 0 0 1 .29-.557l.008-.012.039-.05.015-.018.03-.037.028-.032.018-.019a1.992 1.992 0 0 1 .277-.249 1.987 1.987 0 0 1 .546-.288l.022-.008.033-.01.045-.014h.008a2.019 2.019 0 0 1 .549-.075h5.834a8.012 8.012 0 0 0 7.962-7.219 4.006 4.006 0 0 0 2.694-3.781v-1zm-10.523 27.423c.011.047.021.094.031.141l.009.044.024.122.01.061c.007.036.013.072.019.109l.012.082c0 .031.009.061.013.092l.012.1.01.082c0 .035.007.07.01.106l.007.079c0 .035.005.07.007.105s0 .055.005.082 0 .078.005.116v.07.187s0 .127 0 .191v.041c0 .054 0 .108-.007.162v.027a7.964 7.964 0 0 1 -.369 2.018l-5.951-1.587-.015-.047-.022-.072c-.03-.089-.063-.176-.1-.263l-.016-.039c-.014-.032-.028-.063-.043-.095l-.024-.053c-.013-.027-.026-.053-.04-.08s-.022-.045-.034-.067-.024-.044-.036-.066-.028-.052-.043-.077l-.034-.056-.051-.084-.031-.048-.062-.091-.024-.034c-.025-.035-.05-.069-.076-.1l-.006-.009.32-.349 4.183-4.563a7.015 7.015 0 0 1 2.3 3.761zm-14.13-15.61v-.07c0-.038 0-.077 0-.116s0-.054.005-.082 0-.07.008-.105l.007-.079c0-.036.006-.071.01-.106l.009-.082c0-.033.008-.066.013-.1l.012-.092.013-.082.018-.109.011-.061c.007-.04.015-.081.023-.122l.01-.044.03-.141v-.006a7.011 7.011 0 0 1 2.3-3.761l4.5 4.912-.02.027-.042.057-.055.077-.031.047c-.02.029-.04.059-.059.089l-.009.036c-.02.033-.041.066-.06.1l-.017.03c-.021.037-.041.074-.061.111l-.01.021c-.021.04-.041.08-.061.121l-.013.03c-.018.038-.036.077-.052.116l-.019.046c-.014.034-.028.068-.041.1-.019.051-.038.1-.055.154l-.014.045-.024.073-5.949 1.587a7.973 7.973 0 0 1 -.37-2.018v-.016c0-.054 0-.109-.006-.163v-.041c0-.064 0-.127 0-.191s-.003-.13-.001-.192zm4.653-10.844a3.931 3.931 0 0 0 2.479-1.3l.066-.076.02-.024.05-.063.033-.041.035-.046.041-.055.01-.014.025-.036.03-.043c.019-.027.036-.053.054-.08l.009-.014a4 4 0 0 0 .53-1.226l5.024 1.34a8.063 8.063 0 0 1 -3.261 2.909l-.042.021-.133.062-.088.039-.044.019a7.978 7.978 0 0 1 -2.25.606l-.057.007-.095.01c-.047 0-.094.009-.141.012h-.07l-.123.008h-.049l-.172.016h-.042-.183-1.656zm9.477-7.546c.011.047.021.094.031.141l.009.044.024.122.01.061c.007.036.013.072.019.109l.012.082c0 .031.009.061.013.092l.012.1.01.082c0 .035.007.07.01.106l.007.079c0 .035.005.07.007.105s0 .055.005.082 0 .078.005.116v.07.187s0 .127 0 .191v.041c0 .054 0 .108-.007.162v.027a7.964 7.964 0 0 1 -.369 2.018l-5.951-1.587-.015-.047-.022-.072c-.03-.089-.063-.176-.1-.263l-.016-.039c-.014-.032-.028-.063-.043-.095l-.024-.053c-.013-.027-.026-.053-.04-.08s-.022-.045-.034-.067-.024-.044-.036-.066-.028-.052-.043-.077l-.034-.056-.051-.084-.031-.048-.062-.091-.024-.034c-.025-.035-.05-.069-.076-.1l-.006-.009.32-.349 4.183-4.563a7.015 7.015 0 0 1 2.3 3.761zm-4.477 26.577h-1.656-.183-.042l-.173-.007h-.049l-.123-.008-.069-.005-.142-.012-.093-.01-.06-.007a7.982 7.982 0 0 1 -2.24-.6l-.062-.027-.074-.034c-.048-.021-.095-.043-.142-.066l-.031-.015a8.054 8.054 0 0 1 -3.274-2.923l5.024-1.339a4 4 0 0 0 .531 1.228v.006l.059.088.025.036.029.041.012.017.035.047.041.054.028.035.055.068.015.018a3.933 3.933 0 0 0 2.559 1.384zm-17.261-32h7.261v5h-1.344a6.01 6.01 0 0 1 -5.917-5zm9.261 5v-5h5.656q.135 0 .267.006h.094.032l.149.01.174.016h.021l.157.018.04.006.134.019.073.012.1.017.09.017.082.016.118.026.049.011c.046.01.091.022.136.033l.032.008a7.011 7.011 0 0 1 1.037.358l-4.356 4.752-.047-.02-.026-.011a3.976 3.976 0 0 0 -1.044-.272h-.007c-.1-.012-.2-.02-.3-.024h-.034c-.047 0-.095 0-.143 0zm.779 8h.221v2h-3.049a3 3 0 0 1 2.828-2zm-10.04 21h7.261v5h-1.344a6.01 6.01 0 0 1 -5.917-5zm9.261 5v-5h5.656q.135 0 .267.006h.094.032l.149.01.174.016h.021l.157.018.04.006.134.019.073.012.1.017.09.017.082.016.118.026.049.011c.046.01.091.022.136.033l.032.008a7.011 7.011 0 0 1 1.037.358l-4.356 4.752-.047-.02-.026-.011a3.976 3.976 0 0 0 -1.044-.272h-.007c-.1-.012-.2-.02-.3-.024h-.034c-.047 0-.095 0-.143 0zm.779 8h.221v2h-3.049a3 3 0 0 1 2.828-2zm2.221-.031a3.931 3.931 0 0 0 2.479-1.3v-.005l.066-.076.02-.024.05-.063.033-.041.035-.046.041-.055.01-.014.025-.036.03-.043c.019-.027.036-.053.054-.08l.009-.014a4 4 0 0 0 .53-1.226l5.024 1.34a8.063 8.063 0 0 1 -3.261 2.914l-.042.021-.133.062-.088.039-.044.019a7.978 7.978 0 0 1 -2.25.606l-.057.007-.095.01-.141.012-.07.005-.123.008h-.049l-.172.011h-.042-.183-1.656zm10.05-14.969h-3.05v-2h.221a3 3 0 0 1 2.829 2zm-4.54-10c-.048 0-.1 0-.143 0h-.034c-.1 0-.2.012-.3.024h-.007a3.924 3.924 0 0 0 -1.042.272l-.033.013-.042.018-4.354-4.747a6.948 6.948 0 0 1 1.038-.358l.023-.006.145-.036.033-.007.135-.029.064-.013.107-.02.083-.014c.03-.005.06-.011.09-.015l.116-.017.058-.008.138-.016h.039c.051-.006.1-.01.154-.014h.024l.137-.009h.044.084c.092 0 .184-.006.277-.006h5.656v5z"/></g></g></g></svg>