<svg height="512" viewBox="0 0 128 128" width="512" xmlns="http://www.w3.org/2000/svg"><g><g><path d="m96.18 126.247h-13.316a5 5 0 0 1 -5-5v-21.366h23.316v21.366a5 5 0 0 1 -5 5z" fill="#5a5a5a"/><path d="m85.522 64h8v35.882h-8z" fill="#ede9e8"/><path d="m92.794 43.313h3.456v20.687h-13.456v-10.687a10 10 0 0 1 10-10z" fill="#ffda2d"/><path d="m46.37 30.617a23.8 23.8 0 0 0 12.352 3.457h10.556a23.8 23.8 0 0 0 12.352-3.457 23.8 23.8 0 0 1 14.862-3.323l29.758 3.155-23.215-11.979a18.2 18.2 0 0 1 -3.642-2.48l-11.2-9.814a17.875 17.875 0 0 0 -17.8-3.384l-.405.145a17.565 17.565 0 0 1 -11.893.029l-.237-.084a18.265 18.265 0 0 0 -18.183 3.439l-11.066 9.671a18.271 18.271 0 0 1 -3.644 2.478l-23.215 11.979 29.758-3.155a23.8 23.8 0 0 1 14.862 3.323z" fill="#ff7cb9"/><path d="m96.492 27.294a23.8 23.8 0 0 0 -14.862 3.323 23.8 23.8 0 0 1 -12.352 3.457h-10.556a23.8 23.8 0 0 1 -12.352-3.457 23.8 23.8 0 0 0 -14.862-3.323l-29.758 3.155 12.144 6.334a51.738 51.738 0 0 1 12.661 9.292l.851.851a51.681 51.681 0 0 0 55.394 11.608v-5.221a10 10 0 0 1 10-10h3.45v7.477a51.589 51.589 0 0 0 4.344-3.864l.851-.851a51.738 51.738 0 0 1 12.661-9.292l12.144-6.334z" fill="#fa5e97"/></g><g><path d="m127.927 30.944c.008-.027.01-.055.017-.082a1.829 1.829 0 0 0 .046-.225c.005-.042 0-.081 0-.122 0-.023.009-.044.009-.067s-.008-.039-.008-.06a1.731 1.731 0 0 0 -.054-.376c0-.016 0-.033-.009-.049a1.773 1.773 0 0 0 -.169-.386c-.019-.032-.04-.061-.061-.091a1.786 1.786 0 0 0 -.209-.258c-.025-.025-.047-.051-.074-.074a1.727 1.727 0 0 0 -.35-.247l-.013-.01-23.216-11.98a16.4 16.4 0 0 1 -3.291-2.241l-11.204-9.814a19.637 19.637 0 0 0 -19.541-3.715l-.407.145a15.71 15.71 0 0 1 -10.71.031l-.239-.086a20.023 20.023 0 0 0 -19.922 3.77l-11.066 9.67a16.463 16.463 0 0 1 -3.294 2.241l-23.214 11.982-.013.009a1.717 1.717 0 0 0 -.352.248c-.026.023-.047.049-.072.073a1.808 1.808 0 0 0 -.211.259c-.02.031-.041.059-.06.091a1.773 1.773 0 0 0 -.169.386c0 .016 0 .032-.009.048a1.74 1.74 0 0 0 -.054.377c0 .021-.008.04-.008.06s.008.044.009.067v.122a1.635 1.635 0 0 0 .046.221c.007.029.01.059.018.088a1.727 1.727 0 0 0 .172.4c.01.016.022.031.033.048a1.709 1.709 0 0 0 .245.3l.048.048a1.774 1.774 0 0 0 .4.277l12.114 6.319a49.915 49.915 0 0 1 12.233 8.977 1.75 1.75 0 1 0 2.475-2.475 53.463 53.463 0 0 0 -13.093-9.609l-7-3.653 23.994-2.544a22.184 22.184 0 0 1 13.77 3.079 25.54 25.54 0 0 0 13.26 3.711h10.554a25.54 25.54 0 0 0 13.26-3.711 22.164 22.164 0 0 1 13.77-3.079l23.992 2.544-7 3.653a53.476 53.476 0 0 0 -13.088 9.606l-.852.851q-.654.654-1.356 1.3v-3.676a1.751 1.751 0 0 0 -1.75-1.75h-3.46a11.764 11.764 0 0 0 -11.75 11.75v4.011a49.868 49.868 0 0 1 -22.21 2.743 1.75 1.75 0 1 0 -.361 3.481 53.8 53.8 0 0 0 5.527.287 53.153 53.153 0 0 0 17.044-2.8v2.963a1.75 1.75 0 0 0 1.75 1.75h.978v32.385h-5.908a1.75 1.75 0 0 0 -1.75 1.75v21.365a6.758 6.758 0 0 0 6.75 6.75h13.316a6.758 6.758 0 0 0 6.75-6.75v-9.437a1.75 1.75 0 1 0 -3.5 0v9.437a3.254 3.254 0 0 1 -3.25 3.25h-13.316a3.254 3.254 0 0 1 -3.25-3.25v-19.615h21.566a1.75 1.75 0 0 0 0-3.5h-5.908v-32.385h.978a1.75 1.75 0 0 0 1.75-1.75v-12.394c1.363-1.12 2.661-2.27 3.831-3.44l.852-.851a49.929 49.929 0 0 1 12.232-8.977l12.1-6.31a1.7 1.7 0 0 0 .427-.295l.024-.024a1.7 1.7 0 0 0 .27-.333c.006-.01.013-.018.018-.028a1.718 1.718 0 0 0 .173-.404zm-40.655 67.191v-32.382h4.5v32.382zm-2.728-44.82a8.249 8.249 0 0 1 8.25-8.25h1.706v17.185h-9.956zm-3.822-24.191a22.043 22.043 0 0 1 -11.444 3.2h-10.556a22.041 22.041 0 0 1 -11.444-3.2 25.686 25.686 0 0 0 -15.955-3.567l-20.476 2.171 14.921-7.7a19.991 19.991 0 0 0 3.992-2.717l11.067-9.669a16.528 16.528 0 0 1 16.438-3.11l.235.085a19.44 19.44 0 0 0 13.072-.029l.406-.146a16.146 16.146 0 0 1 16.058 3.058l11.2 9.814a19.883 19.883 0 0 0 3.992 2.718l14.923 7.7-20.474-2.175a25.7 25.7 0 0 0 -15.955 3.567z"/><path d="m44.2 56.249c-1.505-.648-2.99-1.377-4.416-2.167a1.75 1.75 0 0 0 -1.695 3.063c1.526.844 3.115 1.625 4.725 2.319a1.751 1.751 0 0 0 1.386-3.215z"/></g></g></svg>