<svg id="Layer_3" enable-background="new 0 0 64 64" height="512" viewBox="0 0 64 64" width="512" xmlns="http://www.w3.org/2000/svg"><g><path d="m12.853 8c0 12.806 5.126 25.087 14.252 34.142l.274.272c.378.375.89.586 1.425.586h6.392c.535 0 1.047-.211 1.425-.586l.274-.272c9.126-9.055 14.252-21.336 14.252-34.142" fill="#976947"/><path d="m39.606 13.5c0-1.877-.174-3.713-.488-5.5h-26.265c0 11.832 4.385 23.21 12.248 32.016 8.721-5.602 14.505-15.381 14.505-26.516z" fill="#c18e59"/><ellipse cx="32" cy="8" fill="#db9b7c" rx="19.147" ry="6"/><path d="m12.853 8c0 3.314 8.573 6 19.147 6 2.704 0 5.273-.178 7.606-.495 0-.002 0-.004 0-.005 0-3.962-.739-7.75-2.074-11.243-1.753-.166-3.608-.257-5.532-.257-10.575 0-19.147 2.686-19.147 6z" fill="#efbe9a"/><path d="m19.005 31.501c-.659 3.178-.998 6.436-.998 9.73v.385c0 .53.212 1.039.59 1.414l4.52 4.485c.378.375.891.586 1.425.586h.388c1.356 0 2.705-.056 4.046-.167l6.047-.883c9.141-1.923 17.606-6.436 24.314-13.092-1.86 1.845-7.202-.316-13.041-4.942-2.349 4.822-5.512 9.267-9.401 13.126l-.274.272c-.378.374-.89.585-1.425.585h-6.392c-.535 0-1.047-.211-1.425-.586l-.274-.272c-3.212-3.187-5.928-6.773-8.1-10.641z" fill="#442518"/><path d="m50.373 16.58c7.288 7.332 11.294 15.067 8.964 17.378-1.86 1.845-7.202-.316-13.041-4.942 1.916-3.932 3.291-8.116 4.077-12.436z" fill="#db9b7c"/><path d="m47.94 25.239c.505-1.312.953-2.647 1.342-4 3.55 3.832 5.733 7.109 5.066 7.77-.582.578-3.181-1.007-6.408-3.77z" fill="#c66b60"/><ellipse cx="32" cy="8" fill="#c66b60" rx="12.093" ry="2"/><path d="m38.938 57.026c-.232-.976-.867-1.837-1.715-2.383-.011-.007-.023-.015-.034-.022-1.404-.885-2.166-2.499-2.166-4.15v-7.471h-6.046v7.471c0 1.65-.763 3.265-2.166 4.15-.011.007-.023.014-.034.022-.848.546-1.482 1.406-1.715 2.383-.626 2.631 1.369 4.974 3.915 4.974.711 0 1.375-.187 1.952-.511.674-.379 1.469-.379 2.143 0 .576.324 1.24.511 1.951.511 2.546 0 4.541-2.343 3.915-4.974z" fill="#f5cf88"/><path d="m15.769 60.058c.531-.853.696-1.907.485-2.888-.003-.013-.006-.026-.009-.039-.362-1.611.249-3.287 1.425-4.454l5.324-5.283-4.276-4.243-5.324 5.283c-1.176 1.167-2.865 1.773-4.489 1.414-.013-.003-.026-.006-.04-.009-.989-.209-2.05-.046-2.91.482-2.318 1.422-2.577 4.478-.776 6.264.503.499 1.105.833 1.744 1.008.747.205 1.309.763 1.515 1.504.177.634.513 1.231 1.016 1.73 1.803 1.788 4.882 1.531 6.315-.769z" fill="#f5cf88"/><g><path d="m27.163 36.608c-4.546-4.51-7.753-10.171-9.275-16.37l1.942-.477c1.435 5.842 4.458 11.177 8.742 15.428z" fill="#976947"/></g><path d="m39.355 9.585c-.136-1.099-.329-2.18-.576-3.241-1.933-.217-4.266-.344-6.779-.344-6.679 0-12.093.895-12.093 2s5.414 2 12.093 2c2.771 0 5.316-.156 7.355-.415z" fill="#e47c6e"/><g fill="#674025"><path d=""/><path d="m19.005 31.501c-.659 3.178-.998 6.436-.998 9.73v.385c0 .53.212 1.039.59 1.414l.131.13c2.257-.808 4.391-1.87 6.376-3.145-2.348-2.631-4.396-5.482-6.099-8.514z"/></g><path d="m26.811 54.621c-.011.007-.023.014-.034.022-.848.546-1.482 1.406-1.715 2.383-.255 1.073-.07 2.094.406 2.932 4.616-3.553 7.603-9.118 7.603-15.394 0-.528-.038-1.046-.079-1.563h-4.015v7.471c0 1.65-.763 3.264-2.166 4.149z" fill="#fadfb2"/><g><path d="m32 10.999c4.89 0 13.093-.39 13.093-3s-8.203-3-13.093-3-13.093.39-13.093 3 8.202 3 13.093 3zm0-3.999c5.308 0 8.797.535 10.354 1-1.556.465-5.045 1-10.354 1s-8.798-.534-10.354-1c1.556-.466 5.045-1 10.354-1z"/><path d="m60.041 34.667c1.482-1.471 1.244-4.228-.691-7.975-1.673-3.24-4.476-6.932-7.906-10.442.456-2.701.703-5.456.703-8.25 0-4.547-10.38-7-20.147-7s-20.147 2.453-20.147 7c0 8.421 2.123 16.514 6.101 23.694-.623 3.135-.947 6.34-.947 9.536v.386c0 .507.145 1 .388 1.44l-4.704 4.668c-.984.976-2.347 1.42-3.617 1.137-1.25-.263-2.578-.044-3.64.607-1.348.826-2.223 2.18-2.401 3.712-.178 1.529.348 3.028 1.443 4.115.604.6 1.359 1.036 2.183 1.263.407.111.705.406.817.809.229.819.669 1.57 1.275 2.171.953.945 2.22 1.462 3.547 1.462.198 0 .397-.011.597-.034 1.536-.18 2.893-1.046 3.723-2.379.659-1.059.882-2.38.604-3.676-.27-1.2.172-2.551 1.154-3.525l4.71-4.673c.443.245.937.387 1.457.387h.388c1.015 0 2.034-.041 3.046-.103v1.475c0 1.376-.651 2.643-1.741 3.33-1.076.693-1.859 1.784-2.146 2.993-.362 1.521-.023 3.085.929 4.29.961 1.217 2.404 1.914 3.959 1.914.853 0 1.697-.22 2.442-.638.371-.206.794-.207 1.164.001.744.417 1.588.637 2.441.637 1.555 0 2.998-.697 3.959-1.914.952-1.205 1.291-2.769.929-4.29v-.001c-.288-1.208-1.07-2.299-2.188-3.018-1.049-.662-1.7-1.929-1.7-3.305v-2.624c9.106-2.072 17.398-6.612 24.016-13.18zm-10.314-11.436c1.848 2.117 2.899 3.648 3.388 4.551-.777-.409-2.069-1.253-3.974-2.841.208-.565.399-1.137.586-1.71zm-13.536 18.201-.274.272c-.191.189-.448.294-.721.294h-6.392c-.273 0-.53-.104-.721-.294l-.274-.272c-8.219-8.156-13.052-18.769-13.831-30.168 3.534 2.444 10.938 3.736 18.022 3.736s14.488-1.292 18.022-3.736c-.779 11.398-5.612 22.012-13.831 30.168zm-.168 2.438c.486-.138.935-.383 1.302-.747l.274-.272c3.696-3.667 6.726-7.816 9.055-12.297 3.194 2.4 6.744 4.437 9.55 4.938-5.79 5-12.691 8.524-20.182 10.302v-1.924zm21.55-16.26c1.684 3.261 1.651 5.05 1.06 5.638-1.116 1.106-5.343-.131-11.071-4.52.282-.604.558-1.21.815-1.825 3.197 2.599 4.819 3.24 5.693 3.24.554 0 .811-.254.983-.426.435-.432 1.722-1.743-4.653-8.734.211-.773.403-1.551.577-2.335 2.854 3.061 5.167 6.196 6.596 8.962zm-25.573-24.61c11.243 0 18.147 2.912 18.147 5 0 2.087-6.904 5-18.147 5-11.244 0-18.147-2.912-18.147-5s6.903-5 18.147-5zm-15.034 48.966c-1.466 1.454-2.116 3.517-1.69 5.414.16.744.03 1.527-.356 2.148-.514.825-1.315 1.34-2.256 1.45-.931.107-1.844-.207-2.503-.86-.365-.362-.62-.796-.757-1.29-.301-1.079-1.129-1.901-2.213-2.199-.5-.138-.939-.392-1.305-.754-.656-.651-.971-1.549-.865-2.464.108-.933.626-1.728 1.459-2.238.45-.275.983-.421 1.538-.421.223 0 .449.023.674.071 1.875.422 3.946-.229 5.409-1.681l4.62-4.584 2.856 2.834zm7.964-4.867h-.388c-.273 0-.529-.104-.721-.294l-.12-.119c-.001-.001-.001-.002-.002-.003l-4.275-4.242s-.001-.001-.002-.001l-.121-.12c-.19-.188-.294-.439-.294-.704v-.386c0-2.308.178-4.622.518-6.909 1.949 3.049 4.239 5.914 6.875 8.53l.274.272c.367.364.817.609 1.302.747v3.122c-1.011.064-2.03.107-3.046.107zm11.752 8.384c.646.416 1.114 1.062 1.283 1.773.223.936.026 1.855-.552 2.588-.899 1.139-2.582 1.484-3.852.772-.489-.275-1.025-.412-1.562-.412-.536 0-1.072.137-1.56.411-1.269.716-2.952.367-3.853-.771-.579-.732-.775-1.652-.552-2.588.169-.712.637-1.357 1.31-1.791 1.624-1.024 2.632-2.938 2.632-4.995v-6.472h4.047v6.472c0 2.057 1.008 3.971 2.659 5.013z"/><path d="m17.888 20.238c1.522 6.199 4.729 11.86 9.275 16.37l1.409-1.419c-4.285-4.251-7.308-9.586-8.742-15.428z"/></g></g></svg>