<svg id="Filled" enable-background="new 0 0 512 512" height="512" viewBox="0 0 512 512" width="512" xmlns="http://www.w3.org/2000/svg"><g><path d="m176 496c-22.081-.025-39.975-17.919-40-40v-280.936c-.015-17.222 11.008-32.516 27.351-37.947l16.407-5.47c2.955-.991 5.069-3.603 5.421-6.7l5.016-45.159 67.516.021 5.11 45.132c.35 3.099 2.464 5.714 5.421 6.706l16.407 5.469c16.343 5.432 27.366 20.726 27.351 37.948v280.936c-.025 22.081-17.919 39.975-40 40z" fill="#9ac6e5"/><path d="m296 216v240c-.018 13.248-10.752 23.982-24 24h-96c-13.248-.018-23.982-10.752-24-24v-240z" fill="#fde575"/><path d="m192 24h64v48h-64z" fill="#606669"/><ellipse cx="128" cy="448" fill="#b0bb74" rx="48" ry="40"/><circle cx="96" cy="448" fill="#818a55" r="16"/><path d="m431.307 289.745c-28.284 28.284-79.2 45.255-79.2 45.255s16.971-50.912 45.255-79.2c12.74-12.74 25.479-18.593 35.634-21.18 8.568-2.194 17.293 2.974 19.487 11.542.667 2.606.667 5.339 0 7.945-2.583 10.159-8.436 22.899-21.176 35.638z" fill="#b0bb74"/><ellipse cx="387.817" cy="443.817" fill="#818a55" rx="40" ry="48" transform="matrix(.707 -.707 .707 .707 -200.237 404.219)"/><ellipse cx="311.635" cy="440" fill="#b0bb74" rx="40" ry="48"/><path d="m360 341.632c14.262-5.327 52.826-21.208 76.85-45.232 11.81-11.8 19.64-25.03 23.28-39.31 3.282-12.856-4.479-25.938-17.335-29.22-3.899-.995-7.986-.995-11.885 0-14.28 3.64-27.51 11.47-39.31 23.28-13.083 13.083-23.735 30.466-31.6 45.9v-41.05c0-4.418-3.582-8-8-8s-8 3.582-8 8v100.15l-32 25.6v-205.808c0-17.913-10.689-33.293-27.035-38.719l-16.723-5.576c-2.957-.993-4.771-3.529-5.274-5.838l-5.257-46c3.67-.803 6.286-4.052 6.289-7.809v-48c0-4.418-3.582-8-8-8h-64c-4.418 0-8 3.582-8 8v48c.003 3.721 2.57 6.949 6.195 7.788l-5.016 45.157c-.353 3.097-2.465 5.71-5.419 6.705l-16.406 5.469c-16.346 5.425-27.372 20.718-27.354 37.941v225.44c-2.654-.33-5.326-.497-8-.5-30.878 0-56 21.533-56 48s25.122 48 56 48c9.33.035 18.552-2.001 27-5.962 6.314 3.891 13.583 5.954 21 5.962h96c6.867.017 13.621-1.75 19.6-5.129 6.148 3.35 13.034 5.113 20.035 5.129 15.684 0 29.634-8.823 38.4-22.437 1.214 1.443 2.494 2.841 3.84 4.194 10.389 10.389 23.607 16.791 37.221 18.028 1.618.148 3.218.222 4.8.221 12.259 0 23.317-4.384 31.522-12.589 18.715-18.716 16.176-51.707-5.66-73.544-14.413-14.413-33.687-20.408-50.509-17.437l-11.249-33.736zm42.912-79.171c9.745-9.745 20.5-16.166 31.951-19.084.68-.177 1.379-.268 2.082-.27 2.1.023 4.106.872 5.584 2.364 2.028 1.991 2.83 4.919 2.1 7.666-2.918 11.456-9.339 22.206-19.085 31.951-16.844 16.839-42.674 29.662-59.474 36.842 7.18-16.801 20.003-42.63 36.842-59.469zm-202.912-230.461h48v32h-48zm-31.59 120.3 16.418-5.473c8.862-2.982 15.198-10.823 16.253-20.114l5.19-46.713h35.36l5.288 47.6c1.057 9.293 7.396 17.135 16.261 20.115l16.414 5.471c9.804 3.254 16.417 12.426 16.406 22.756v24.058h-144v-24.94c-.012-10.332 6.603-19.507 16.41-22.76zm-72.41 303.7c-4.418 0-8-3.582-8-8s3.582-8 8-8 8 3.582 8 8c-.005 4.416-3.584 7.995-8 8zm4.885 15.5c12.979-2.691 21.318-15.395 18.627-28.373-1.942-9.366-9.261-16.684-18.627-18.627 7.907-5.64 17.403-8.618 27.115-8.5 22.056 0 40 14.355 40 32s-17.944 32-40 32c-9.712.118-19.208-2.86-27.115-8.5zm75.115 8.5c-1.891-.006-3.776-.236-5.613-.685 8.472-8.415 13.613-19.356 13.613-31.315 0-19.109-13.1-35.641-32-43.359v-188.641h144v171.066c-18.812 7.585-32.365 28.441-32.365 52.934 0 15.328 5.31 29.233 13.891 39.355-1.811.427-3.665.643-5.526.645zm135.635 0c-17.645 0-32-17.944-32-40s14.355-40 32-40 32 17.944 32 40-14.355 40-32 40zm71.465-72.213c9.893.9 19.605 5.657 27.347 13.4 15.6 15.6 18.137 38.438 5.66 50.915-5.847 5.846-14.213 8.6-23.56 7.749-9.894-.9-19.609-5.663-27.356-13.41-2.98-2.971-5.561-6.316-7.679-9.952 3.201-12.175 2.782-25.019-1.208-36.959.942-1.437 2.027-2.775 3.237-3.994 5.842-5.846 14.207-8.594 23.559-7.749zm-34.7-3.734c-4.801-6.809-11.247-12.291-18.738-15.938l18.375-14.7 8.191 24.574c-2.842 1.701-5.47 3.737-7.828 6.064z"/><circle cx="200" cy="288" r="8"/><circle cx="176" cy="264" r="8"/><circle cx="200" cy="240" r="8"/></g></svg>