<svg height="512" viewBox="0 0 128 128" width="512" xmlns="http://www.w3.org/2000/svg"><g><g><path d="m108.622 50.893-3.091 6.262-6.909 1.004 5 4.874-1.181 6.881 6.181-3.249 6.18 3.249-1.18-6.881 5-4.874-6.91-1.004z" fill="#fdd82e"/><path d="m98.742 111.5a10 10 0 0 0 19.97.76 9.994 9.994 0 0 1 -15.34-8.45c0-.25.01-.51.03-.76a9.979 9.979 0 0 0 -4.66 8.45z" fill="#fdd82e"/><path d="m77.974 80.762a5.5 5.5 0 0 1 7.778 0l.581.582.582-.582a5.5 5.5 0 1 1 7.777 7.777l-8.359 8.361-8.359-8.359a5.5 5.5 0 0 1 0-7.779z" fill="#fd637b"/><path d="m19.378 50.893 3.091 6.262 6.909 1.004-5 4.874 1.181 6.881-6.181-3.249-6.18 3.249 1.18-6.881-5-4.874 6.91-1.004z" fill="#fdd82e"/><path d="m29.258 111.5a10 10 0 0 1 -19.97.76 9.994 9.994 0 0 0 15.34-8.45c0-.25-.01-.51-.03-.76a9.979 9.979 0 0 1 4.66 8.45z" fill="#fdd82e"/><path d="m50.026 80.762a5.5 5.5 0 0 0 -7.778 0l-.581.582-.582-.582a5.5 5.5 0 1 0 -7.777 7.777l8.359 8.361 8.359-8.359a5.5 5.5 0 0 0 0-7.779z" fill="#fd637b"/><path d="m64 41.383 3.09 6.261 6.91 1.004-5 4.874 1.18 6.882-6.18-3.249-6.18 3.249 1.18-6.882-5-4.874 6.91-1.004z" fill="#fdd82e"/><path d="m73.88 111.5a10 10 0 0 1 -19.97.76 9.994 9.994 0 0 0 15.34-8.45c0-.25-.01-.51-.03-.76a9.979 9.979 0 0 1 4.66 8.45z" fill="#fdd82e"/><path d="m61 6.5h6v21.75h-6z" fill="#3d6269"/><path d="m58 19.588h12v9.745h-12z" fill="#537980"/><path d="m6.5 33.535a2.988 2.988 0 0 1 2.265-2.91c12.422-3.055 32.542-5.037 55.235-5.037s42.8 1.982 55.234 5.038a2.987 2.987 0 0 1 2.266 2.909 2.99 2.99 0 0 1 -3.7 2.913c-12.138-3.008-32.219-4.86-53.8-4.86s-41.664 1.852-53.8 4.86a2.99 2.99 0 0 1 -3.7-2.913z" fill="#3d6269"/></g><g fill="#2c0d12"><path d="m119.651 28.927a136.075 136.075 0 0 0 -13.4-2.484 1.75 1.75 0 1 0 -.486 3.466 132.658 132.658 0 0 1 13.048 2.416 1.253 1.253 0 0 1 .454 2.2 1.2 1.2 0 0 1 -1.046.226c-12.407-3.077-32.676-4.913-54.221-4.913s-41.815 1.836-54.223 4.912a1.2 1.2 0 0 1 -1.046-.226 1.25 1.25 0 0 1 -.481-.989 1.236 1.236 0 0 1 .934-1.21c12.692-3.125 33.184-4.987 54.816-4.987 7.187 0 14.259.2 21.02.594a1.75 1.75 0 0 0 .2-3.494c-4.377-.255-8.892-.42-13.473-.513v-4.335a1.75 1.75 0 0 0 -1.747-1.75h-1.25v-11.34a1.75 1.75 0 0 0 -1.75-1.75h-6a1.751 1.751 0 0 0 -1.75 1.75v11.34h-1.25a1.751 1.751 0 0 0 -1.75 1.75v4.33c-18.981.391-36.492 2.2-47.9 5.006a4.748 4.748 0 1 0 2.271 9.221c2.094-.519 4.436-1 6.961-1.444v13.88l-2.454 4.972-6 .872a1.75 1.75 0 0 0 -.97 2.985l4.342 4.232-1.024 5.975a1.748 1.748 0 0 0 2.539 1.844l3.567-1.875v41.917a8.183 8.183 0 0 1 -7.352-.722 1.75 1.75 0 0 0 -2.685 1.609 11.749 11.749 0 1 0 17.99-10.822 1.75 1.75 0 0 0 -2.679 1.619c.016.205.024.417.024.621a8.2 8.2 0 0 1 -1.8 5.127v-39.4l3.664 1.926a1.749 1.749 0 0 0 2.539-1.844l-1.024-5.975 4.341-4.232a1.75 1.75 0 0 0 -.97-2.985l-6-.872-2.55-5.168v-14.26c5.586-.846 11.971-1.514 18.84-1.987v43.794a7.255 7.255 0 0 0 -9.378 3.835 1.75 1.75 0 0 0 3.212 1.391 3.736 3.736 0 0 1 .791-1.16 3.839 3.839 0 0 1 5.3 0l.581.581a1.75 1.75 0 0 0 2.474 0l.586-.581a3.749 3.749 0 0 1 5.3 5.3l-7.122 7.121-6.109-6.108a1.75 1.75 0 0 0 -2.475 2.475l7.346 7.346a1.752 1.752 0 0 0 2.475 0l8.359-8.359a7.248 7.248 0 0 0 -7.84-11.843v-44.012c6.015-.347 12.35-.542 18.83-.572v7.626l-2.5 5.07-6 .872a1.75 1.75 0 0 0 -.971 2.985l4.342 4.232-1.021 5.975a1.75 1.75 0 0 0 2.539 1.845l3.616-1.9v51.435a8.187 8.187 0 0 1 -7.4-.7 1.75 1.75 0 0 0 -2.685 1.608 11.749 11.749 0 1 0 17.99-10.82 1.749 1.749 0 0 0 -2.679 1.622c.016.2.024.414.024.617a8.2 8.2 0 0 1 -1.75 5.062v-48.825l3.616 1.9a1.75 1.75 0 0 0 2.539-1.845l-1.024-5.975 4.336-4.232a1.751 1.751 0 0 0 -.97-2.985l-6-.872-2.5-5.07v-7.625c6.48.03 12.815.225 18.83.572v44.012a7.248 7.248 0 0 0 -7.843 11.845l8.361 8.359a1.75 1.75 0 0 0 2.474 0l8.36-8.359a7.249 7.249 0 0 0 -7.85-11.843v-43.794c6.869.473 13.254 1.141 18.84 1.987v14.261l-2.551 5.167-6 .872a1.751 1.751 0 0 0 -.97 2.985l4.341 4.232-1.024 5.975a1.75 1.75 0 0 0 2.539 1.844l3.664-1.926v39.4a8.2 8.2 0 0 1 -1.8-5.126c0-.2.008-.419.024-.624a1.75 1.75 0 0 0 -2.68-1.615 11.748 11.748 0 1 0 17.991 10.821 1.75 1.75 0 0 0 -2.685-1.608 8.186 8.186 0 0 1 -7.375.712 1.577 1.577 0 0 0 .023-.219v-41.691l3.567 1.876a1.749 1.749 0 0 0 2.539-1.844l-1.027-5.975 4.342-4.232a1.751 1.751 0 0 0 -.97-2.985l-6-.872-2.454-4.973v-13.882c2.525.444 4.866.924 6.961 1.443a4.748 4.748 0 0 0 2.27-9.22zm-56.901-20.677h2.5v9.59h-2.5zm-3 13.09h8.5v2.528c-1.413-.016-2.827-.03-4.25-.03s-2.839.009-4.25.025zm-33.744 85.409a8.249 8.249 0 1 1 -14.094 8.494 11.757 11.757 0 0 0 14.094-8.494zm-3.789-47.862 3.4.494-2.461 2.4a1.749 1.749 0 0 0 -.5 1.549l.58 3.386-3.041-1.6a1.751 1.751 0 0 0 -1.629 0l-3.042 1.6.581-3.386a1.749 1.749 0 0 0 -.5-1.549l-2.461-2.4 3.4-.494a1.747 1.747 0 0 0 1.317-.958l1.521-3.082 1.518 3.082a1.751 1.751 0 0 0 1.317.958zm71.238 23.113a3.753 3.753 0 0 1 0 5.3l-7.122 7.121-7.121-7.121a3.749 3.749 0 0 1 5.3-5.3l.581.582a1.75 1.75 0 0 0 1.237.513 1.749 1.749 0 0 0 1.237-.512l.585-.583a3.839 3.839 0 0 1 5.303 0zm22.633 33.243a8.247 8.247 0 0 1 -15.6-3.743 8.2 8.2 0 0 1 1.5-4.751 11.757 11.757 0 0 0 14.094 8.494zm-1.227-55.862-2.461 2.4a1.752 1.752 0 0 0 -.5 1.549l.581 3.386-3.041-1.6a1.751 1.751 0 0 0 -1.629 0l-3.042 1.6.581-3.386a1.752 1.752 0 0 0 -.5-1.549l-2.461-2.4 3.4-.494a1.751 1.751 0 0 0 1.318-.958l1.521-3.082 1.521 3.082a1.749 1.749 0 0 0 1.317.958zm-44.233 47.369a8.253 8.253 0 0 1 -6.748 13 8.29 8.29 0 0 1 -7.346-4.507 11.758 11.758 0 0 0 14.094-8.493zm-3.79-57.374 3.4.494-2.461 2.4a1.752 1.752 0 0 0 -.5 1.549l.581 3.387-3.042-1.6a1.749 1.749 0 0 0 -1.628 0l-3.042 1.6.581-3.387a1.752 1.752 0 0 0 -.5-1.549l-2.461-2.4 3.4-.494a1.751 1.751 0 0 0 1.318-.958l1.516-3.081 1.521 3.081a1.749 1.749 0 0 0 1.317.958z"/><path d="m92.351 28.445c2.089.172 4.137.364 6.087.57a1.669 1.669 0 0 0 .186.01 1.75 1.75 0 0 0 .182-3.49c-1.976-.209-4.052-.4-6.168-.578a1.75 1.75 0 1 0 -.287 3.488z"/></g></g></svg>