<svg height="512" viewBox="0 0 64 64" width="512" xmlns="http://www.w3.org/2000/svg"><g id="Fill_Outline" data-name="Fill Outline"><g id="Color"><g><path d="m29.189 31.836-3.464 2-16.29-26.392a2.913 2.913 0 0 1 1.022-4.053 2.913 2.913 0 0 1 4.021 1.141z" fill="#c4f236"/><path d="m20.443 15.6a5.114 5.114 0 0 1 -4.608-2.41l-5.313-8.604a3.19 3.19 0 0 1 -.384-.965 2.9 2.9 0 0 0 -.7 3.823l16.29 26.392 3.464-2z" fill="#a1d51c"/><path d="m53 9a6 6 0 0 1 6 6 14 14 0 0 1 -14 14h-2a0 0 0 0 1 0 0v-10a10 10 0 0 1 10-10z" fill="#4891d3"/><path d="m40.455 61h-18.91a6 6 0 0 1 -5.981-5.528l-2.564-32.472h36l-2.564 32.472a6 6 0 0 1 -5.981 5.528z" fill="#57b7eb"/><rect fill="#84d2f4" height="4" rx="2" width="44" x="9" y="19"/><path d="m53 9h-19a10 10 0 0 0 -10 10h23a11.211 11.211 0 0 1 4.992-9.328z" fill="#84d2f4"/><path d="m11 19a2 2 0 0 0 0 4h40a2 2 0 0 0 2-2h-40a2 2 0 0 1 -2-2z" fill="#57b7eb"/><path d="m35.683 16a4 4 0 0 1 -2.707-6.948 10 10 0 0 0 -8.976 9.948h23a11.181 11.181 0 0 1 .422-3z" fill="#57b7eb"/><path d="m45.455 55h-4.123a22 22 0 0 1 -21.932-20.269 8.169 8.169 0 0 1 7.079-8.742l22.521-2.961v-.028h-36l2.564 32.472a6 6 0 0 0 5.981 5.528h18.91a6 6 0 0 0 5.981-5.528l.045-.57a5.977 5.977 0 0 1 -1.026.098z" fill="#4891d3"/><path d="m47.758 38.732a28.774 28.774 0 0 0 -7.091-1.983 11 11 0 0 0 -19.334 0 28.774 28.774 0 0 0 -7.091 1.983l.535 6.771a30.436 30.436 0 0 0 6.556 1.748 11 11 0 0 0 19.334 0 30.436 30.436 0 0 0 6.556-1.751z" fill="#f9e109"/><g><circle cx="28" cy="43" fill="#f8664f" r="3"/><circle cx="33" cy="43" fill="#f89c8d" r="3"/></g><path d="m19.716 37.052a25.88 25.88 0 0 0 -5.474 1.68l.535 6.771a30.436 30.436 0 0 0 6.556 1.748 11 11 0 0 0 9.667 5.749c.357 0 .7-.04 1.053-.073a21.987 21.987 0 0 1 -12.337-15.875z" fill="#fcbc04"/><path d="m30 44a2.96 2.96 0 0 1 -2.86-3.86 2.992 2.992 0 1 0 3.72 3.72 2.983 2.983 0 0 1 -.86.14z" fill="#cc5144"/><ellipse cx="30" cy="43" fill="#cc5144" rx="1" ry="2.221"/><path d="m35 44a2.96 2.96 0 0 1 -2.86-3.86 2.992 2.992 0 1 0 3.72 3.72 2.983 2.983 0 0 1 -.86.14z" fill="#f8664f"/></g></g><g id="Outline_copy" data-name="Outline copy"><g fill="#39519d"><path d="m53 8h-19a11.01 11.01 0 0 0 -10.949 10h-5.925l-6.84-11.082a1.913 1.913 0 1 1 3.314-1.911l5.64 10.468a1 1 0 0 0 1.76-.95l-5.642-10.466a3.913 3.913 0 1 0 -6.775 3.91l6.192 10.031h-3.775a3 3 0 0 0 0 6h36.918l-1.642 20.788a31.1 31.1 0 0 1 -5.776 1.477 1 1 0 0 0 -.714.508 10 10 0 0 1 -17.578 0 1 1 0 0 0 -.715-.507 31.12 31.12 0 0 1 -5.773-1.477l-.42-5.423a30.037 30.037 0 0 1 6.2-1.631 1 1 0 0 0 .715-.507 10 10 0 0 1 17.578 0 1 1 0 0 0 .714.508c1.136.189 2.228.417 3.247.681a1 1 0 1 0 .5-1.937c-.934-.241-1.924-.455-2.949-.636a12 12 0 0 0 -20.6 0 32.69 32.69 0 0 0 -5.567 1.448l-.819-10.37a1 1 0 0 0 -1.994.158l2.247 28.473a7.037 7.037 0 0 0 6.973 6.447h18.91a7.036 7.036 0 0 0 6.979-6.448l.2-2.5a1 1 0 1 0 -1.994-.158l-.2 2.5a5.023 5.023 0 0 1 -4.985 4.606h-18.91a5.024 5.024 0 0 1 -4.984-4.606l-.661-8.414a34.372 34.372 0 0 0 4.8 1.177 12 12 0 0 0 20.6 0 34.356 34.356 0 0 0 4.8-1.177l-.152 1.926a1 1 0 0 0 .918 1.076h.08a1 1 0 0 0 1-.921l1.978-25.061h1.076a3 3 0 0 0 0-6h-2.938a10.176 10.176 0 0 1 4.485-7.5l.716-.477a4.993 4.993 0 0 1 4.737 4.977 12.989 12.989 0 0 1 -5.572 10.642 1 1 0 1 0 1.144 1.64 14.988 14.988 0 0 0 6.428-12.282 7.009 7.009 0 0 0 -7-7zm-1 13a1 1 0 0 1 -1 1h-40a1 1 0 0 1 0-2h40a1 1 0 0 1 1 1zm-5.959-3h-20.986a9.013 9.013 0 0 1 8.945-8h15.956a12.173 12.173 0 0 0 -3.915 8z"/><path d="m34.832 36.555a1 1 0 0 0 -1.032-1.535l-2.609.521a4.87 4.87 0 0 0 -3.734 3.514 3.99 3.99 0 1 0 3.048 7.05 3.964 3.964 0 0 0 2.495.895 3.992 3.992 0 0 0 .607-7.939 2.865 2.865 0 0 1 .465-1.367zm-3.245.947.373-.074a4.863 4.863 0 0 0 -.35 1.835 3.984 3.984 0 0 0 -1.1.632 4.011 4.011 0 0 0 -1.025-.608 2.865 2.865 0 0 1 2.102-1.787zm-5.587 5.498a2 2 0 0 1 1.047-1.748.988.988 0 0 0 .71.718 1.025 1.025 0 0 0 .243.03 1 1 0 0 0 .965-.747 1.984 1.984 0 0 1 .334.237 3.95 3.95 0 0 0 0 3.02 1.992 1.992 0 0 1 -3.299-1.51zm9 0a2 2 0 1 1 -2.964-1.741c.027.061.039.128.069.188a1 1 0 0 0 1.342.448.989.989 0 0 0 .51-.64 2 2 0 0 1 1.043 1.745z"/></g></g></g></svg>