<svg height="512" viewBox="0 0 128 128" width="512" xmlns="http://www.w3.org/2000/svg"><g><g><path d="m38.74 79.112-5.56 37.35-5.93-.88 5.42-36.47z" fill="#eaeaf0"/><path d="m100.75 115.582-5.93.88-5.56-37.35h6.07z" fill="#eaeaf0"/><path d="m121.5 113.553a2.988 2.988 0 0 1 -2.265 2.909c-12.422 3.057-32.542 5.038-55.235 5.038s-42.8-1.981-55.234-5.038a2.986 2.986 0 0 1 -2.266-2.909 2.99 2.99 0 0 1 3.7-2.913c12.138 3.008 32.219 4.86 53.8 4.86s41.664-1.852 53.8-4.86a2.99 2.99 0 0 1 3.7 2.913z" fill="#d5d5db"/><path d="m109.25 55.67v19.26a21.1 21.1 0 0 1 -21.09 21.09h-48.32a21.1 21.1 0 0 1 -21.09-21.09v-19.26z" fill="#62e0da"/><rect fill="#50c1b4" height="6" rx="3" width="96.5" x="15.75" y="54.135"/><path d="m47.333 24.914-1.854 3.757-4.146.602 3 2.924-.708 4.13 3.708-1.95 3.709 1.95-.709-4.13 3-2.924-4.146-.602z" fill="#fdd82e"/><rect fill="#eaeaf0" height="6" rx="3" width="42" x="43" y="6.5"/><g fill="#fdd82e"><path d="m80.667 24.914 1.854 3.757 4.146.602-3 2.924.708 4.13-3.708-1.95-3.709 1.95.709-4.13-3-2.924 4.146-.602z"/><circle cx="64" cy="37.165" r="6"/></g></g><g fill="#2c0d12"><path d="m121.425 109.807a4.692 4.692 0 0 0 -4.044-.866 134.664 134.664 0 0 1 -15.45 2.7l-2.5-16.865a22.891 22.891 0 0 0 7.119-6.3 1.751 1.751 0 1 0 -2.817-2.079 19.431 19.431 0 0 1 -15.573 7.873h-48.32a19.362 19.362 0 0 1 -19.34-19.34v-2.27l4.969 2.64a1.752 1.752 0 0 0 1.641 0l6.72-3.565 6.722 3.565a1.75 1.75 0 0 0 1.64 0l6.716-3.565 6.719 3.565a1.752 1.752 0 0 0 1.641 0l6.719-3.565 6.72 3.565a1.75 1.75 0 0 0 1.64 0l6.722-3.565 6.724 3.565a1.75 1.75 0 0 0 1.64 0l6.723-3.565 6.727 3.565a1.748 1.748 0 0 0 1.639 0l4.978-2.638v2.268a19.417 19.417 0 0 1 -.557 4.625 1.75 1.75 0 1 0 3.4.836 22.889 22.889 0 0 0 .657-5.461v-13.389a4.744 4.744 0 0 0 -1.75-9.156h-3.69v-30.885a13.765 13.765 0 0 0 -13.75-13.75h-5.4a4.749 4.749 0 0 0 -4.41-3h-36a4.749 4.749 0 0 0 -4.406 3h-5.4a13.765 13.765 0 0 0 -13.754 13.75v30.885h-3.69a4.744 4.744 0 0 0 -1.75 9.156v13.389a22.848 22.848 0 0 0 11.57 19.853l-2.5 16.856a134.664 134.664 0 0 1 -15.45-2.7 4.748 4.748 0 0 0 -2.27 9.221c12.963 3.188 33.767 5.09 55.65 5.09 21.9 0 42.7-1.9 55.652-5.088a4.753 4.753 0 0 0 1.773-8.355zm-19.725-38.037-6.725-3.57a1.748 1.748 0 0 0 -1.639 0l-6.723 3.565-6.724-3.565a1.75 1.75 0 0 0 -1.64 0l-6.722 3.565-6.719-3.565a1.752 1.752 0 0 0 -1.641 0l-6.719 3.565-6.72-3.565a1.752 1.752 0 0 0 -1.641 0l-6.716 3.565-6.721-3.565a1.75 1.75 0 0 0 -1.64 0l-6.72 3.565-5.79-3.065v-6.815h87v6.815zm-55.7-63.52h36a1.25 1.25 0 0 1 0 2.5h-36a1.25 1.25 0 0 1 0-2.5zm35.942 24.243.108.634-.569-.3a1.751 1.751 0 0 0 -1.629 0l-.569.3.108-.634a1.749 1.749 0 0 0 -.5-1.549l-.461-.449.637-.092a1.751 1.751 0 0 0 1.318-.958l.285-.577.285.577a1.751 1.751 0 0 0 1.318.958l.636.092-.461.449a1.749 1.749 0 0 0 -.506 1.549zm-17.942.423a4.25 4.25 0 1 1 -4.25 4.25 4.255 4.255 0 0 1 4.25-4.25zm-15.391-.423.108.634-.569-.3a1.751 1.751 0 0 0 -1.629 0l-.569.3.108-.634a1.749 1.749 0 0 0 -.5-1.549l-.461-.449.636-.092a1.751 1.751 0 0 0 1.318-.958l.285-.577.285.577a1.751 1.751 0 0 0 1.318.958l.637.092-.461.449a1.749 1.749 0 0 0 -.506 1.549zm-29.859 23.392h58a1.75 1.75 0 0 0 0-3.5h-50.81v-30.885a10.261 10.261 0 0 1 10.25-10.25h5.4a4.737 4.737 0 0 0 3.989 2.958v10.3l-1.266 2.565-3.235.47a1.75 1.75 0 0 0 -.97 2.985l2.341 2.282-.549 3.221a1.749 1.749 0 0 0 2.539 1.844l2.894-1.521 2.894 1.521a1.749 1.749 0 0 0 2.539-1.844l-.552-3.223 2.341-2.282a1.75 1.75 0 0 0 -.97-2.985l-3.235-.47-1.267-2.565v-10.256h13.167v15.372a7.75 7.75 0 1 0 3.5 0v-15.372h13.167v10.256l-1.267 2.565-3.235.47a1.75 1.75 0 0 0 -.97 2.985l2.341 2.282-.552 3.223a1.749 1.749 0 0 0 2.539 1.844l2.894-1.521 2.894 1.521a1.75 1.75 0 0 0 2.539-1.844l-.553-3.223 2.341-2.282a1.75 1.75 0 0 0 -.97-2.985l-3.235-.47-1.266-2.565v-10.3a4.737 4.737 0 0 0 3.989-2.958h5.4a10.261 10.261 0 0 1 10.254 10.252v30.885h-7.655a1.75 1.75 0 0 0 0 3.5h14.845a1.25 1.25 0 0 1 0 2.5h-90.5a1.25 1.25 0 1 1 0-2.5zm79.7 56.157q-1.227.132-2.487.254l-2.263-15.222a23.033 23.033 0 0 0 2.419-.752zm-66.573-15.707a22.724 22.724 0 0 0 7.963 1.435h48.32c.7 0 1.4-.043 2.091-.107l2.224 14.949c-8.753.735-18.461 1.138-28.475 1.138s-19.722-.4-28.475-1.138l1.287-8.65a1.75 1.75 0 1 0 -3.462-.514l-1.316 8.852q-1.258-.123-2.487-.254zm87.873 17.219a1.237 1.237 0 0 1 -.934 1.21c-12.69 3.122-33.182 4.986-54.816 4.986-21.617 0-42.109-1.864-54.816-4.987a1.253 1.253 0 0 1 -.453-2.2 1.22 1.22 0 0 1 .746-.263 1.27 1.27 0 0 1 .3.038c12.408 3.076 32.679 4.912 54.223 4.912s41.815-1.836 54.223-4.911a1.2 1.2 0 0 1 1.046.225 1.247 1.247 0 0 1 .481.989z"/><path d="m83 55.885h4.25a1.75 1.75 0 0 0 0-3.5h-4.25a1.75 1.75 0 0 0 0 3.5z"/></g></g></svg>