<svg id="Capa_1" enable-background="new 0 0 512 512" height="512" viewBox="0 0 512 512" width="512" xmlns="http://www.w3.org/2000/svg"><g><g><path clip-rule="evenodd" d="m173.431 119.529c38.153 0 49.972-13.379 56.917-32.569h235.406c10.204 0 19.388-7.653 19.388-17.036v-10.319c0-9.411-9.212-17.064-19.388-17.064h-235.236c-6.973-19.162-18.821-32.541-57.002-32.541-38.209 0-79.536 24.519-79.536 54.764-.029 30.245 41.299 54.765 79.451 54.765z" fill="#bfdbff" fill-rule="evenodd"/></g><g><path clip-rule="evenodd" d="m221.76 502h170.609c25.454 0 28.175-24.434 20.607-43.539-10.289-25.993-33.844-48.188-60.829-46.827-8.929-26.787-34.553-44.305-62.699-43.057-8.617-29.253-35.658-50.597-67.688-50.597s-59.1 21.344-67.688 50.597c-28.175-1.247-53.771 16.271-62.699 43.057-27.013-1.361-50.539 20.834-60.857 46.827-7.569 19.105-4.82 43.539 20.634 43.539z" fill="#faf7f5" fill-rule="evenodd"/></g><g><path d="m465.755 32.541h-228.55c-10.717-23.008-29.714-32.541-63.689-32.541-42.265 0-89.536 27.697-89.536 64.755-.017 17.692 10.609 34.417 29.92 47.093 17.117 11.236 38.815 17.681 59.531 17.681 33.96 0 52.937-9.542 63.616-32.57h76.041c5.522 0 10-4.477 10-10s-4.478-10-10-10h-82.74c-4.211 0-7.971 2.638-9.403 6.597-5.142 14.21-12.267 25.973-47.514 25.973-16.668 0-34.82-5.383-48.556-14.4-13.289-8.724-20.905-19.788-20.896-30.364.001-22.592 34.444-44.765 69.537-44.765 35.287 0 42.437 11.757 47.605 25.961 1.438 3.951 5.193 6.58 9.397 6.58h235.236c4.825 0 9.388 3.433 9.388 7.064v10.318c0 3.616-4.563 7.036-9.388 7.036h-62.842c-5.522 0-10 4.477-10 10s4.478 10 10 10h62.842c15.93 0 29.388-12.381 29.388-27.036v-10.318c.001-14.67-13.457-27.064-29.387-27.064z"/><path d="m230.524 259.189c0 5.523 4.477 10 10 10s10-4.477 10-10v-37.644c0-5.523-4.477-10-10-10s-10 4.477-10 10z"/><path d="m240.524 186.816c5.523 0 10-4.477 10-10v-17.801c0-5.523-4.477-10-10-10s-10 4.477-10 10v17.801c0 5.523 4.477 10 10 10z"/><path d="m194.974 206.629c5.523 0 10-4.477 10-10v-37.615c0-5.523-4.477-10-10-10s-10 4.477-10 10v37.615c0 5.523 4.477 10 10 10z"/><path d="m184.974 268.345c0 5.523 4.477 10 10 10s10-4.477 10-10v-26.957c0-5.523-4.477-10-10-10s-10 4.477-10 10z"/><path d="m139.423 291.22c0 5.523 4.477 10 10 10s10-4.477 10-10v-70.695c0-5.523-4.477-10-10-10s-10 4.477-10 10z"/><path d="m149.423 185.795c5.523 0 10-4.477 10-10v-16.781c0-5.523-4.477-10-10-10s-10 4.477-10 10v16.781c0 5.523 4.477 10 10 10z"/><path d="m103.872 260.033c5.523 0 10-4.477 10-10v-91.019c0-5.523-4.477-10-10-10s-10 4.477-10 10v91.019c0 5.523 4.477 10 10 10z"/><path d="m93.872 323.25c0 5.523 4.477 10 10 10s10-4.477 10-10v-28.487c0-5.523-4.477-10-10-10s-10 4.477-10 10z"/><path d="m221.76 360.957c-5.523 0-10 4.477-10 10v.085c0 5.523 4.477 9.958 10 9.958s10-4.52 10-10.042-4.477-10.001-10-10.001z"/><path d="m321.563 445.399c-5.522 0-10 4.477-10 10v.057c0 5.523 4.478 9.972 10 9.972s10-4.505 10-10.028-4.478-10.001-10-10.001z"/><path d="m121.957 445.399c-5.523 0-10 4.477-10 10v.057c0 5.523 4.477 9.972 10 9.972s10-4.505 10-10.028-4.477-10.001-10-10.001z"/><path d="m359.008 401.735c-11.102-24.741-35.347-41.464-62.436-43.09-5.414-13.479-14.515-25.472-26.141-34.302-14.097-10.706-30.928-16.365-48.672-16.365-32.983 0-62.746 20.495-74.822 50.667-27.083 1.633-51.327 18.355-62.426 43.09-30.005 2.262-53.128 27.432-63.293 53.042-4.99 12.596-7.18 30.68 1.639 43.659 4.205 6.188 12.526 13.564 28.293 13.564h341.219c15.76 0 24.075-7.37 28.276-13.553 8.815-12.974 6.62-31.065 1.628-43.667-10.137-25.612-33.243-50.787-63.265-53.045zm45.095 85.472c-.806 1.186-3.257 4.793-11.733 4.793h-341.22c-8.486 0-10.943-3.616-11.75-4.804-3.594-5.29-3.428-15.357.41-25.046 7.863-19.809 26.473-40.577 49.183-40.577.622 0 1.249.016 1.877.047 4.479.231 8.57-2.565 9.99-6.825 7.458-22.377 29.177-37.287 52.77-36.229 4.594.192 8.741-2.758 10.038-7.173 7.505-25.562 31.394-43.415 58.093-43.415 26.675 0 50.564 17.856 58.096 43.423 1.3 4.412 5.445 7.357 10.035 7.165 23.621-1.046 45.312 13.852 52.77 36.229 1.42 4.261 5.515 7.054 9.991 6.825 23.56-1.188 42.971 20.171 51.027 40.523 3.843 9.707 4.014 19.779.423 25.064z"/><path d="m181.085 401.803c-5.523 0-10 4.477-10 10v.057c0 5.523 4.477 9.972 10 9.972s10-4.505 10-10.028-4.478-10.001-10-10.001z"/><path d="m262.435 401.803c-5.523 0-10 4.477-10 10v.057c0 5.523 4.477 9.972 10 9.972 5.522 0 10-4.505 10-10.028s-4.478-10.001-10-10.001z"/><path d="m221.76 445.399c-5.523 0-10 4.477-10 10v.057c0 5.523 4.477 9.972 10 9.972s10-4.505 10-10.028-4.477-10.001-10-10.001z"/><path d="m358.043 96.959c5.522 0 9.986-4.477 9.986-10s-4.492-10-10.015-10-10 4.477-10 10 4.478 10 10 10z"/></g></g></svg>